<svg width="26" height="25" viewBox="0 0 26 25" fill="none" xmlns="http://www.w3.org/2000/svg">
<path opacity="0.4" d="M22.5251 7.84764C22.0974 7.57819 21.5717 7.55435 21.1235 7.78235L19.6106 8.54616C19.0512 8.82806 18.7041 9.39807 18.7041 10.0323V15.9874C18.7041 16.6216 19.0512 17.1906 19.6106 17.4746L21.1225 18.2373C21.3277 18.3431 21.5472 18.3938 21.7666 18.3938C22.03 18.3938 22.2913 18.3192 22.5251 18.1731C22.9529 17.9047 23.2081 17.4393 23.2081 16.9294V9.09233C23.2081 8.58244 22.9529 8.1171 22.5251 7.84764Z" fill="white"/>
<path d="M12.903 20.667H6.99023C4.51775 20.667 2.7915 18.9621 2.7915 16.5215V9.50001C2.7915 7.0583 4.51775 5.35449 6.99023 5.35449H12.903C15.3754 5.35449 17.1017 7.0583 17.1017 9.50001V16.5215C17.1017 18.9621 15.3754 20.667 12.903 20.667Z" fill="white"/>
</svg>
