<svg width="48" height="49" viewBox="0 0 48 49" fill="none" xmlns="http://www.w3.org/2000/svg">
<path d="M28.2178 19.053C28.9209 19.0053 29.624 18.9489 30.3271 18.9098C31.5901 18.8317 32.8531 18.7622 34.116 18.6884C35.4224 18.6147 36.7245 18.5409 38.0309 18.4628C39.6758 18.3629 41.3207 18.2631 42.97 18.1633C44.0463 18.0982 45.1227 18.0331 46.199 17.9723C46.3032 17.968 46.403 17.9463 46.5115 17.9853C46.2164 19.0704 45.9256 20.1467 45.6305 21.2274C45.0793 23.2586 44.5237 25.2898 43.9812 27.321C43.9291 27.5207 43.8423 27.6031 43.634 27.6422C41.3381 28.0545 39.0465 28.4798 36.7505 28.9052C34.0075 29.4086 31.2646 29.9164 28.5259 30.4199C28.4261 30.4372 28.3219 30.4459 28.2178 30.4633C28.2178 26.6613 28.2178 22.8593 28.2178 19.0617V19.053Z" fill="#E52560"/>
<path d="M19.3165 32.0952C18.5613 32.2731 17.7887 32.3903 17.0249 32.5335C14.5379 32.9979 12.0467 33.4493 9.55978 33.9094C9.53808 33.9094 9.52072 33.9224 9.49902 33.9181C9.38184 33.9181 9.28201 34.0656 9.18219 34.0005C9.06935 33.9224 9.08237 33.7575 9.05199 33.6316C7.94959 29.3652 6.85153 25.0945 5.74913 20.8281C5.71441 20.6979 5.67535 20.5677 5.64062 20.4375C5.71441 20.3334 5.82725 20.3681 5.92273 20.3637C6.7517 20.3117 7.58067 20.2639 8.40964 20.2162C9.67263 20.1424 10.9356 20.0643 12.1986 19.9862C13.3357 19.9167 14.4772 19.8516 15.6143 19.7822C16.7731 19.7127 17.9319 19.6476 19.0951 19.5825C19.1689 19.5825 19.2383 19.5825 19.3121 19.5825C19.3121 23.7534 19.3121 27.92 19.3121 32.0908L19.3165 32.0952Z" fill="#E52560"/>
<path d="M19.3164 32.0952C19.3164 27.9243 19.3164 23.7578 19.3164 19.5869C19.7157 19.5001 20.1193 19.5174 20.523 19.4957C22.7364 19.3568 24.9499 19.2266 27.1677 19.1008C27.5193 19.0791 27.8709 19.027 28.2224 19.053C28.2224 22.855 28.2224 26.657 28.2224 30.4546C27.35 30.6195 26.4777 30.7931 25.6053 30.9537C23.5741 31.3313 21.5386 31.7002 19.503 32.0735C19.4423 32.0865 19.3815 32.0865 19.3207 32.0909L19.3164 32.0952Z" fill="#E51955"/>
<path d="M29.8322 39.7597C29.7324 39.8032 29.6282 39.7858 29.524 39.7858C27.0892 39.8249 24.65 39.8596 22.2152 39.8943C19.9019 39.929 17.593 39.9637 15.2797 39.9985C15.1885 39.9985 15.093 39.9985 14.9975 39.9985C14.7328 39.9985 14.7285 39.9985 14.659 39.7467C14.4724 39.1 14.2858 38.4534 14.0991 37.8023C13.8387 36.8952 13.5783 35.9882 13.3179 35.0811C13.3136 35.0594 13.3049 35.042 13.2962 35.0203C13.2441 34.8207 13.2485 34.8076 13.4481 34.7772C13.817 34.7165 14.1859 34.6644 14.5548 34.608C16.9723 34.2391 19.3898 33.8702 21.8072 33.5056C24.42 33.1063 27.0328 32.7113 29.6456 32.3164C29.6846 32.312 29.728 32.3164 29.7671 32.3164C29.7671 34.6774 29.7671 37.0385 29.7671 39.4039C29.7671 39.521 29.7193 39.6556 29.8235 39.7597H29.8322Z" fill="#00A099"/>
<path d="M39.4936 41.4441C38.6906 43.4536 37.8834 45.463 37.0804 47.4725C36.9936 47.6852 36.9112 47.8979 36.8287 48.1062C36.6942 48.4317 36.7593 48.4013 36.3817 48.3927C35.8131 48.3796 35.2402 48.3579 34.6717 48.3319C33.1613 48.2581 31.6509 48.1756 30.1405 48.0975C28.4739 48.0107 26.8073 47.9239 25.145 47.8371C25.0539 47.8328 24.9584 47.8371 24.8716 47.798C24.954 47.798 25.0365 47.798 25.119 47.798C25.4228 47.798 25.4228 47.798 25.4228 47.4856C25.4228 45.4587 25.4228 43.4275 25.4228 41.4007C25.4966 41.3963 25.566 41.3833 25.6398 41.3833C30.1492 41.3833 34.663 41.3833 39.1724 41.3833C39.2896 41.3833 39.4024 41.3833 39.5022 41.4484L39.4936 41.4441Z" fill="#4CAD49"/>
<path d="M38.5693 30.9843C39.0554 30.8671 39.5502 30.815 40.0406 30.7412C42.0371 30.4331 44.0379 30.1336 46.0344 29.8254C46.4337 29.7647 46.833 29.7083 47.2323 29.6388C47.3799 29.6128 47.4233 29.6649 47.3972 29.7994C47.3278 30.1857 47.2627 30.5763 47.1932 30.9626C46.6984 33.7055 46.2037 36.4485 45.7132 39.1915C45.7046 39.2306 45.6959 39.274 45.6915 39.313C45.6785 39.4736 45.596 39.5387 45.4268 39.5387C44.9928 39.5387 44.5544 39.5517 44.1204 39.5561C42.4191 39.5821 40.7177 39.6081 39.0207 39.6298C38.9079 39.6298 38.795 39.6212 38.6778 39.6168C38.6778 36.8305 38.6778 34.0441 38.6778 31.2577C38.6778 31.1969 38.6778 31.1318 38.6735 31.0711C38.6692 31.0103 38.6214 30.9886 38.5693 30.9756V30.9843Z" fill="#00A099"/>
<path d="M38.5691 30.9842C38.6212 30.9972 38.669 31.0189 38.6733 31.0797C38.6776 31.1404 38.6776 31.2055 38.6776 31.2663C38.6776 34.0527 38.6776 36.8391 38.6776 39.6254C38.0353 39.6428 37.3973 39.6688 36.755 39.6819C34.5719 39.7166 32.3888 39.747 30.2057 39.773C30.0841 39.773 29.9583 39.7643 29.8324 39.76C29.7326 39.6558 29.776 39.5213 29.776 39.4041C29.776 37.043 29.776 34.682 29.776 32.3166C30.3012 32.1908 30.8393 32.1387 31.3732 32.0562C33.6691 31.7047 35.9651 31.3574 38.2653 31.0059C38.3695 30.9885 38.4693 30.9625 38.5735 30.9798L38.5691 30.9842Z" fill="#00928B"/>
<path d="M25.4143 41.3963C25.4143 43.4232 25.4143 45.4544 25.4143 47.4812C25.4143 47.7894 25.4143 47.7894 25.1105 47.7937C25.028 47.7937 24.9456 47.7937 24.8631 47.7937C24.4681 47.8197 24.0775 47.7763 23.6826 47.7546C21.7989 47.6592 19.911 47.568 18.0274 47.4595C17.5196 47.4291 17.0118 47.4508 16.5083 47.3554C16.5083 45.4674 16.5083 43.5794 16.5083 41.6915C16.5083 41.3833 16.5083 41.3833 16.8165 41.3833C16.8468 41.3833 16.8772 41.3833 16.9119 41.3833C19.6289 41.3833 22.3502 41.3833 25.0671 41.3833C25.1799 41.3833 25.2928 41.392 25.41 41.3963H25.4143Z" fill="#419E48"/>
<path d="M39.1204 5.27747C38.6343 4.89553 38.1569 4.54832 37.6404 4.26187C36.9503 3.88428 36.2255 3.61085 35.4443 3.51971C34.0554 3.36346 32.8489 3.81484 31.7769 4.66551C30.8611 5.39031 30.1536 6.29306 29.5504 7.28262C28.4219 9.13153 27.6798 11.141 27.1589 13.2373C26.9463 14.101 26.777 14.9734 26.6772 15.9152C26.5774 15.798 26.56 15.7069 26.5383 15.6157C26.2779 14.4092 26.2518 13.1896 26.3387 11.9613C26.4472 10.464 26.7249 9.00132 27.172 7.57341C27.7232 5.80697 28.474 4.14035 29.6676 2.70376C30.3707 1.85309 31.1996 1.15866 32.2326 0.733326C34.3549 -0.134705 36.8201 0.433855 38.235 2.3305C38.8079 3.09437 39.103 3.97542 39.1595 4.93026C39.1638 5.03008 39.1855 5.13424 39.1204 5.27313V5.27747ZM38.6126 4.30093C38.3999 3.8539 38.018 3.63255 37.6491 3.41554C37.0458 3.06833 36.3904 2.84264 35.7177 2.67338C35.4096 2.59525 35.0927 2.53883 34.7716 2.52147C33.9686 2.48241 33.2352 2.73848 32.5538 3.10739C31.7074 3.56311 31.0173 4.21847 30.4097 4.96064C29.6936 5.83735 29.125 6.80954 28.6216 7.8208C28.5912 7.8859 28.5131 7.951 28.5999 8.06819C28.7605 7.78608 28.9124 7.52133 29.0599 7.25658C29.5243 6.41893 30.1233 5.6811 30.7743 4.98668C31.0868 4.65683 31.4427 4.37906 31.8072 4.10563C32.1197 3.87126 32.4539 3.68897 32.7968 3.53273C33.5433 3.19419 34.3202 3.00757 35.1622 3.07267C35.6743 3.11173 36.1648 3.20287 36.6465 3.35478C37.2411 3.54141 37.7923 3.82786 38.3131 4.17073C38.3913 4.22281 38.4607 4.31395 38.6169 4.30093H38.6126Z" fill="#E62A61"/>
<path d="M25.4141 41.3963C25.3013 41.3919 25.1885 41.3833 25.0713 41.3833C22.3543 41.3833 19.6331 41.3833 16.9161 41.3833C16.8857 41.3833 16.8554 41.3833 16.8206 41.3833C16.5125 41.3833 16.5125 41.3833 16.5125 41.6914C16.5125 43.5794 16.5125 45.4674 16.5125 47.3553C15.7747 47.3727 15.0412 47.2946 14.3077 47.2642C13.2183 47.2208 12.1333 47.1513 11.0439 47.0949C10.8008 47.0819 10.7965 47.0819 10.7357 46.8475C10.2844 45.1201 9.83733 43.3971 9.3903 41.6697C9.37294 41.609 9.36426 41.5482 9.35558 41.4874C9.33822 41.3919 9.38596 41.3572 9.4771 41.3572C9.55088 41.3572 9.62033 41.3572 9.69411 41.3572C19.5332 41.3572 29.368 41.3572 39.2072 41.3572C39.3157 41.3572 39.4328 41.3095 39.5283 41.4006C39.5283 41.4006 39.5283 41.418 39.524 41.4267C39.5197 41.4353 39.5066 41.4397 39.498 41.444C39.3938 41.3833 39.2809 41.3789 39.1681 41.3789C34.6587 41.3789 30.1449 41.3789 25.6355 41.3789C25.5617 41.3789 25.4923 41.3876 25.4185 41.3963H25.4141Z" fill="#4BAE4A"/>
<path d="M3.17083 17.2344C3.05364 16.0582 3.21423 14.9602 3.83487 13.9619C3.89129 13.8708 4.0215 13.7797 3.94772 13.6668C3.88261 13.5583 3.73505 13.6104 3.62654 13.6147C2.67171 13.6625 1.82538 13.975 1.13095 14.6607C1.08755 14.7041 1.05717 14.7649 0.974709 14.7649C0.918287 14.7041 0.957349 14.6347 0.974709 14.5696C1.38268 12.8986 2.5198 12.0306 4.14302 11.7051C5.18466 11.4967 6.2263 11.5575 7.26793 11.7224C8.89115 11.9785 10.4059 12.5644 11.8902 13.2502C13.2921 13.9012 14.6679 14.5999 16.1088 15.1728C17.5584 15.7458 19.0428 16.1971 20.5748 16.5009C20.9394 16.5747 21.304 16.6355 21.6772 16.7049C21.6295 16.7917 21.547 16.77 21.4819 16.7744C19.9976 16.8481 18.5176 16.8221 17.0376 16.6745C15.8614 16.5574 14.6939 16.3707 13.5395 16.1277C12.4761 15.902 11.4215 15.6286 10.3581 15.3855C9.49009 15.1859 8.61772 14.9949 7.72365 14.9341C6.72975 14.869 5.77926 15.0123 4.91123 15.5374C4.32531 15.8933 3.85657 16.3707 3.4269 16.9002C3.33575 17.0131 3.25329 17.1259 3.16649 17.2431L3.17083 17.2344ZM3.68731 15.8499C3.83921 15.8239 3.94772 15.7241 4.05188 15.6329C4.93293 14.869 5.96155 14.5088 7.11603 14.4784C7.62383 14.4654 8.12295 14.5218 8.6264 14.5956C9.29913 14.6911 9.96317 14.843 10.6229 14.9949C11.0048 15.0817 11.3824 15.1815 11.76 15.2814C12.3155 15.4289 12.8841 15.5374 13.4483 15.6503C14.0342 15.7718 14.6158 15.902 15.2061 15.9845C15.5533 16.0322 15.8962 16.0843 16.2434 16.1407C16.6383 16.2058 17.042 16.2362 17.4413 16.2796C17.4803 16.2796 17.5281 16.2752 17.5281 16.1971C17.1939 16.0626 16.8293 15.9975 16.4821 15.889C15.6358 15.6199 14.7764 15.4029 13.9214 15.1685C12.9188 14.8951 11.9032 14.652 10.8833 14.448C10.1455 14.3005 9.40763 14.1659 8.66546 14.0531C8.0101 13.9533 7.34606 13.9793 6.68201 13.9836C6.62125 13.9836 6.56049 13.9967 6.49973 14.0097C6.03533 14.1052 5.58395 14.2441 5.14994 14.4524C4.7029 14.6651 4.29927 14.9211 3.96942 15.29C3.82619 15.4463 3.67429 15.6155 3.67429 15.8543C3.64824 15.876 3.59616 15.8933 3.65259 15.9367L3.67863 15.8543L3.68731 15.8499Z" fill="#E62A61"/>
<path d="M46.0734 10.334C45.9823 11.4147 45.6741 12.3999 44.9623 13.2288C44.9233 13.2766 44.8712 13.32 44.9016 13.3894C44.932 13.4632 45.0057 13.4372 45.0665 13.4415C45.9606 13.5066 46.8243 13.3851 47.6663 13.0726C47.7617 13.0379 47.8616 13.0075 47.957 12.9771C47.9657 12.9771 47.9744 12.9858 48.0004 12.9988C47.7574 13.3894 47.4406 13.7106 47.0717 13.9797C46.4684 14.4267 45.7783 14.6828 45.0491 14.8217C43.8296 15.056 42.597 15.043 41.36 14.9779C39.7021 14.8868 38.0528 14.7219 36.3949 14.6698C35.1796 14.6307 33.9687 14.6611 32.7622 14.8347C32.3498 14.8955 31.9462 14.9823 31.5426 15.0777C31.4211 15.1038 31.2995 15.1342 31.1606 15.1255C31.2735 15.0604 31.3863 14.9866 31.5035 14.9389C32.3585 14.57 33.2309 14.2314 34.1293 13.984C35.1623 13.7019 36.2039 13.4849 37.2586 13.307C38.4868 13.0986 39.7151 12.9077 40.939 12.6863C41.8591 12.5214 42.7662 12.2957 43.6342 11.9442C44.511 11.5883 45.3052 11.1108 45.9302 10.3904C45.9476 10.3687 45.9779 10.3513 46.004 10.334C46.0127 10.3296 46.0213 10.334 46.0734 10.334ZM35.1102 14.1273V14.201C35.2057 14.2575 35.3185 14.2314 35.4227 14.2358C35.9305 14.2358 36.4426 14.1967 36.9461 14.2531C37.4495 14.3095 37.9573 14.3009 38.4608 14.3443C38.8601 14.379 39.2637 14.4007 39.6673 14.4311C40.3054 14.4788 40.9434 14.5396 41.5814 14.5483C41.8808 14.5483 42.1803 14.5222 42.4798 14.6003C42.5753 14.6264 42.6924 14.622 42.7879 14.6003C43.3174 14.4788 43.8599 14.5743 44.3938 14.4962C45.0057 14.4094 45.5873 14.2575 46.1472 14.0144C46.2166 13.984 46.3121 13.9623 46.3078 13.8582C46.2731 13.8104 46.2383 13.8234 46.1949 13.8321C45.7826 13.9276 45.353 13.958 44.9363 13.971C43.7992 14.0057 42.6577 13.9971 41.5206 13.9189C41.4989 13.9189 41.4772 13.9189 41.4598 13.9189C40.8696 13.8017 40.2663 13.8451 39.6673 13.8148C38.6344 13.7627 37.5971 13.767 36.5685 13.9189C36.0824 13.9927 35.5919 14.0535 35.1058 14.1229L35.1102 14.1273Z" fill="#00A19A"/>
<path d="M24.9845 11.3667C24.9845 11.3667 24.9975 11.3927 25.0018 11.4101C24.9888 11.5186 25.0279 11.6054 25.1147 11.6749C25.1016 11.7356 25.1147 11.779 25.1711 11.8051C25.1798 11.8181 25.1841 11.8311 25.1884 11.8485C25.1754 11.957 25.2102 12.0481 25.297 12.1175C25.3056 12.1306 25.31 12.1479 25.3143 12.1609C25.3143 12.3302 25.3794 12.4821 25.4836 12.6167C25.5096 12.8163 25.5574 13.0073 25.6745 13.1722C25.6615 13.246 25.6745 13.3111 25.7353 13.3632V13.4804C25.7006 13.5672 25.8742 13.667 25.7223 13.7494C24.7371 11.9526 23.6477 10.2339 22.1981 8.77129C21.5688 8.13328 20.87 7.58208 20.0757 7.16109C18.4525 6.30174 16.7859 6.26702 15.0802 6.87898C14.4162 7.11769 13.7955 7.44754 13.1923 7.80777C13.1358 7.79041 13.1315 7.75135 13.1402 7.70795C13.253 7.03088 13.4223 6.36684 13.7348 5.75488C14.1254 4.99101 14.6766 4.38773 15.5056 4.09694C16.1826 3.85823 16.8684 3.87993 17.5585 4.0492C18.6044 4.30527 19.5202 4.82609 20.3752 5.45975C20.3839 5.49447 20.4056 5.51617 20.4403 5.51617C20.449 5.55089 20.4707 5.57259 20.5054 5.56825H20.5098C20.5141 5.60731 20.5358 5.62467 20.5705 5.62033L20.5792 5.62901C20.5879 5.68544 20.6226 5.71148 20.679 5.70714C20.6877 5.7462 20.7094 5.76356 20.7441 5.76356C20.7528 5.79828 20.7745 5.81998 20.8092 5.81564H20.8179C20.8179 5.8547 20.8396 5.87206 20.8787 5.86772L20.8917 5.88074C20.9004 5.93717 20.9351 5.95887 20.9872 5.96321C20.9915 6.00227 21.0132 6.01963 21.0523 6.02397C21.0566 6.06303 21.0783 6.08039 21.1174 6.08473C21.1217 6.11945 21.1434 6.14115 21.1825 6.14549C21.1868 6.18455 21.2085 6.20191 21.2476 6.20191C21.2476 6.24098 21.2736 6.25834 21.3084 6.26268C21.3084 6.30174 21.3301 6.3191 21.3691 6.32344C21.3691 6.3625 21.3908 6.37986 21.4299 6.37986L21.4386 6.38854C21.4516 6.45364 21.4906 6.49705 21.5601 6.50573L21.5688 6.51441C21.6165 6.63159 21.6903 6.71405 21.8118 6.75311L21.8248 6.76613C21.8205 6.80086 21.8379 6.81822 21.8726 6.81822L21.8856 6.83124C21.8856 6.86596 21.8986 6.88332 21.9377 6.88332L21.9507 6.89634C21.9507 6.93106 21.9637 6.94842 22.0028 6.94842L22.0158 6.96144C22.0158 6.99616 22.0288 7.01786 22.0635 7.01786L22.0722 7.02654C22.0722 7.06561 22.0896 7.08297 22.1243 7.08297H22.1286C22.1286 7.12637 22.146 7.14373 22.1851 7.14373H22.1894C22.1894 7.18713 22.2068 7.20449 22.2458 7.21317C22.2458 7.25223 22.2675 7.27393 22.3022 7.27827C22.3022 7.31733 22.3239 7.33904 22.3587 7.34338C22.3587 7.38244 22.3804 7.40414 22.4194 7.40848C22.4194 7.44754 22.4411 7.46924 22.4802 7.47358C22.4802 7.53 22.5019 7.56472 22.5583 7.58208H22.5627C22.5627 7.62549 22.58 7.64285 22.6147 7.65153C22.6147 7.69059 22.6364 7.71229 22.6712 7.71663C22.6712 7.75569 22.6885 7.77739 22.7276 7.78607C22.7276 7.84249 22.7493 7.87721 22.8057 7.88589L22.8144 7.89892C22.81 7.93364 22.8274 7.95534 22.8621 7.95534L22.8708 7.96402C22.8665 8.00308 22.8838 8.02044 22.9229 8.02478C22.9229 8.06384 22.9403 8.08554 22.975 8.09422C22.975 8.18537 23.0227 8.24179 23.1095 8.27217C23.1095 8.31557 23.1225 8.33293 23.1573 8.34595C23.1573 8.40237 23.1746 8.44143 23.2354 8.45012L23.2441 8.4588C23.2397 8.49786 23.2571 8.51522 23.2918 8.51956C23.2918 8.56296 23.3092 8.58032 23.3439 8.59334C23.3439 8.64976 23.3656 8.68882 23.4177 8.70618C23.4177 8.74959 23.4307 8.77129 23.4697 8.77997C23.4697 8.81903 23.4871 8.84073 23.5218 8.84941C23.5305 8.86243 23.5392 8.87545 23.5435 8.88847C23.5392 8.92753 23.5566 8.94923 23.5913 8.96225C23.5913 9.00132 23.6086 9.02302 23.6434 9.03604C23.652 9.04906 23.6607 9.06208 23.6651 9.0751C23.6651 9.11416 23.6824 9.13586 23.7171 9.14888C23.7171 9.24002 23.7649 9.30079 23.843 9.33551C23.8343 9.39193 23.856 9.43099 23.9124 9.45269C23.9081 9.49609 23.9255 9.51779 23.9602 9.53081C23.9689 9.54383 23.9775 9.55685 23.9819 9.56988C23.9775 9.60894 23.9949 9.63064 24.034 9.64366L24.0991 9.76084C24.0947 9.7999 24.1121 9.82594 24.1468 9.83896C24.1381 9.89539 24.1598 9.93879 24.2119 9.96049C24.2032 10.0169 24.2249 10.056 24.2814 10.0777C24.2727 10.1211 24.29 10.1428 24.3204 10.1601C24.3291 10.1732 24.3334 10.1905 24.3378 10.2035C24.3334 10.2426 24.3508 10.2686 24.3899 10.2817C24.3985 10.2947 24.4072 10.3077 24.4116 10.3207C24.4029 10.3598 24.4159 10.3858 24.455 10.3988C24.4463 10.4596 24.4723 10.4943 24.5244 10.5204C24.5331 10.5334 24.5418 10.5507 24.5461 10.5681C24.5331 10.6072 24.5461 10.6289 24.5808 10.6462C24.5721 10.7027 24.5938 10.7417 24.6459 10.7678C24.6329 10.8285 24.6503 10.8676 24.7067 10.8936C24.6937 10.9544 24.7197 10.9934 24.7675 11.0195C24.7761 11.0325 24.7805 11.0499 24.7848 11.0672C24.7761 11.1063 24.7935 11.128 24.8282 11.141C24.8195 11.1974 24.8369 11.2408 24.889 11.2669C24.876 11.3276 24.902 11.3667 24.9497 11.3971L24.9845 11.3667ZM23.2658 9.24002C23.2831 9.15756 23.2658 9.12284 23.231 9.09246C23.001 8.85375 22.8187 8.57598 22.6104 8.31991C22.0852 7.68625 21.4689 7.15241 20.8223 6.64895C20.4533 6.3625 20.028 6.16285 19.6027 5.97189C18.8822 5.64637 18.1227 5.47277 17.3241 5.44673C16.7555 5.42937 16.213 5.53787 15.6705 5.66808C15.1367 5.79828 14.6202 5.98925 14.1775 6.33646C14.0299 6.45364 13.9127 6.59687 13.8129 6.75311C13.7825 6.80086 13.7608 6.8486 13.7912 6.89634C13.8303 6.95276 13.8823 6.92238 13.9301 6.89634C13.9778 6.87464 14.0212 6.8486 14.0733 6.83124C14.5594 6.63593 15.0368 6.41892 15.5446 6.2757C16.1349 6.10643 16.7425 6.04133 17.3458 6.02831C17.8536 6.01963 18.3657 6.10209 18.8735 6.23664C19.3683 6.37118 19.837 6.54913 20.2841 6.78784C20.7789 7.04824 21.2432 7.3564 21.6686 7.72531C22.1286 8.1246 22.6017 8.51522 22.975 9.00565C23.0444 9.10114 23.1225 9.2053 23.2701 9.24002H23.2658Z" fill="#52AF4A"/>
<path d="M16.3041 7.41726C16.3127 7.465 16.291 7.49973 16.265 7.53011C15.7832 8.10735 15.7312 8.77573 15.8657 9.4745C16.0306 10.3208 16.4646 11.037 17.0115 11.688C17.9056 12.7513 19.0167 13.5456 20.2102 14.2313C21.5036 14.9691 22.8707 15.5377 24.2769 16.0238C24.3854 16.0629 24.4896 16.0932 24.6198 16.18C23.5304 16.0672 22.4844 15.9196 21.4471 15.6983C20.4923 15.4943 19.5462 15.2556 18.6347 14.904C17.2242 14.3572 15.9612 13.5716 14.9196 12.4649C14.3597 11.8703 13.8823 11.2192 13.6652 10.4163C13.3831 9.38769 13.7173 8.55004 14.6244 7.98582C15.1279 7.67333 15.6834 7.51709 16.2563 7.3999C16.2737 7.3999 16.291 7.41292 16.3084 7.4216L16.3041 7.41726ZM20.7918 15.0907C20.7701 14.9865 20.731 14.9691 20.692 14.9518C20.2927 14.7608 19.8934 14.5612 19.4897 14.3832C18.5262 13.9579 17.6018 13.4588 16.7034 12.9032C15.9525 12.4388 15.2624 11.905 14.6722 11.2453C14.6114 11.1758 14.5593 11.0717 14.3944 11.0847C14.9543 12.0178 15.7095 12.7209 16.5645 13.3242C17.8361 14.2183 19.251 14.7825 20.7918 15.095V15.0907Z" fill="#00A09A"/>
<path d="M29.0078 15.8502C29.0382 15.7113 29.1337 15.6766 29.2031 15.6245C30.5486 14.5611 31.8376 13.437 33.0311 12.2088C33.8644 11.3538 34.6413 10.451 35.3054 9.45278C35.7654 8.75836 36.1691 8.03789 36.4121 7.23496C36.5467 6.79661 36.6204 6.34957 36.5684 5.88517C36.5336 5.59438 36.4685 5.31227 36.2906 5.06922C36.2689 5.03884 36.2385 5.00412 36.2732 4.94336C36.8722 5.13433 37.4581 5.36001 37.9312 5.80271C38.4867 6.31485 38.6516 6.94417 38.465 7.66898C38.3218 8.2332 38.044 8.72363 37.7142 9.19237C37.0154 10.1863 36.1474 11.0152 35.2273 11.7921C33.4348 13.2982 31.5077 14.6089 29.4158 15.6635C29.2899 15.7286 29.1597 15.7807 29.0122 15.8458L29.0078 15.8502ZM32.9877 12.9509C33.0138 12.9726 33.0442 12.9726 33.0702 12.9509C33.9339 12.3129 34.7976 11.6706 35.5831 10.9371C36.4555 10.1255 37.2671 9.25313 37.8357 8.18546C37.9442 7.98581 38.0093 7.77314 37.9876 7.59953C37.9702 7.60821 37.9442 7.61689 37.9399 7.62992C37.5709 8.41548 36.972 9.02745 36.3731 9.62205C35.8479 10.1472 35.2793 10.6333 34.7281 11.1281C34.1249 11.6663 33.578 12.2652 33.0051 12.8381C32.9747 12.8685 32.953 12.9032 32.9834 12.9466L32.9877 12.9509Z" fill="#52AF4A"/>
<path d="M38.6124 4.30073C38.4562 4.31375 38.3911 4.2226 38.3086 4.17052C37.7878 3.82765 37.2366 3.5412 36.642 3.35457C36.1603 3.20701 35.6698 3.11152 35.1577 3.07246C34.3157 3.00736 33.5388 3.19399 32.7923 3.53252C32.4494 3.68876 32.1152 3.87105 31.8027 4.10542C31.4382 4.37885 31.0779 4.65662 30.7698 4.98647C30.1188 5.68089 29.5198 6.41872 29.0554 7.25637C28.9079 7.52112 28.756 7.78587 28.5954 8.06798C28.5086 7.9508 28.5867 7.88569 28.6171 7.82059C29.1205 6.80933 29.6891 5.84148 30.4052 4.96043C31.0128 4.21392 31.7073 3.5629 32.5493 3.10718C33.2307 2.73827 33.9685 2.48654 34.7671 2.52126C35.0882 2.53428 35.4051 2.59504 35.7132 2.67317C36.3859 2.84243 37.0413 3.06812 37.6446 3.41533C38.0135 3.628 38.3954 3.84935 38.6081 4.30073H38.6124Z" fill="#CC1E59"/>
<path d="M3.68311 15.8503C3.68311 15.6116 3.83501 15.4423 3.97824 15.2861C4.30809 14.9215 4.71172 14.6611 5.15876 14.4484C5.59277 14.2401 6.03981 14.1012 6.50855 14.0057C6.56931 13.9927 6.63007 13.984 6.69083 13.9797C7.35488 13.9797 8.01892 13.945 8.67428 14.0491C9.41645 14.162 10.1586 14.2965 10.8921 14.4441C11.912 14.6481 12.9276 14.8868 13.9302 15.1645C14.7852 15.3989 15.6446 15.6203 16.4909 15.885C16.8381 15.9935 17.2027 16.063 17.5369 16.1932C17.5369 16.2713 17.4848 16.28 17.4501 16.2756C17.0508 16.2322 16.6515 16.2018 16.2522 16.1367C15.9093 16.0803 15.5621 16.0282 15.2149 15.9805C14.6203 15.8937 14.0387 15.7635 13.4571 15.6463C12.8929 15.5291 12.3244 15.4206 11.7688 15.2774C11.3912 15.1776 11.0136 15.0777 10.6317 14.9909C9.96765 14.839 9.30795 14.6871 8.63522 14.5916C8.13176 14.5179 7.63265 14.4614 7.12485 14.4745C5.96603 14.5005 4.94175 14.8651 4.0607 15.6289C3.9522 15.7201 3.84369 15.8242 3.69613 15.8459L3.68311 15.8503Z" fill="#CC1E59"/>
<path d="M35.1099 14.123C35.596 14.0535 36.0864 13.9928 36.5725 13.919C37.6011 13.7627 38.6384 13.7584 39.6714 13.8148C40.266 13.8452 40.8692 13.7974 41.4639 13.919C41.4856 13.919 41.5073 13.919 41.5246 13.919C42.6617 13.9971 43.8032 14.0058 44.9403 13.971C45.357 13.958 45.7866 13.9276 46.199 13.8322C46.238 13.8235 46.2771 13.8061 46.3118 13.8582C46.3118 13.9624 46.2207 13.9841 46.1512 14.0145C45.587 14.2532 45.0054 14.4094 44.3978 14.4962C43.864 14.5743 43.3214 14.4788 42.7919 14.6004C42.6921 14.6221 42.5793 14.6264 42.4838 14.6004C42.1887 14.5222 41.8848 14.5526 41.5854 14.5483C40.943 14.544 40.3094 14.4788 39.6714 14.4311C39.2721 14.4007 38.8641 14.379 38.4648 14.3443C37.9613 14.3009 37.4535 14.3096 36.9501 14.2532C36.4466 14.1967 35.9345 14.2401 35.4267 14.2358C35.3182 14.2358 35.2053 14.2575 35.1099 14.2011V14.1273V14.123Z" fill="#008787"/>
<path d="M20.7875 15.0948C19.2468 14.778 17.8319 14.2181 16.5602 13.324C15.7052 12.7251 14.95 12.022 14.3901 11.0845C14.5551 11.0758 14.6071 11.1757 14.6679 11.2451C15.2582 11.9048 15.9483 12.4386 16.6991 12.903C17.5932 13.4586 18.5176 13.9577 19.4855 14.383C19.8891 14.561 20.2884 14.7606 20.6877 14.9516C20.7224 14.969 20.7615 14.9863 20.7875 15.0905V15.0948Z" fill="#008787"/>
<path d="M23.3143 9.19175C23.1638 9.1575 23.0885 9.05019 23.0132 8.96006C22.6322 8.47504 22.1539 8.08887 21.68 7.69411C21.246 7.33368 20.7721 7.0248 20.2674 6.76749C19.8113 6.5359 19.3331 6.35587 18.8285 6.2231C18.3149 6.09033 17.7926 6.00481 17.2703 6.01806C16.6551 6.03138 16.0354 6.10054 15.4336 6.26415C14.9158 6.40624 14.4291 6.62131 13.9335 6.81492C13.8848 6.83213 13.8361 6.85793 13.7875 6.87944C13.7388 6.90095 13.6857 6.93105 13.6458 6.87954C13.6148 6.83232 13.6413 6.78506 13.6679 6.73781C13.7696 6.58313 13.889 6.44132 14.0394 6.32527C14.4906 5.98138 15.0172 5.79205 15.5615 5.66283C16.1103 5.5336 16.6679 5.42584 17.2477 5.44261C18.0622 5.4678 18.8325 5.63904 19.5719 5.9606C20.0058 6.14926 20.4397 6.3465 20.8161 6.62967C21.4715 7.12738 22.1004 7.65516 22.6409 8.28178C22.8579 8.53501 23.0396 8.80973 23.2744 9.04577C23.3054 9.0758 23.3275 9.11015 23.3099 9.19175L23.3143 9.19175Z" fill="#00974C"/>
<path d="M32.2507 13.7056C32.2125 13.6585 32.2369 13.6188 32.2719 13.5834C32.9307 12.9168 33.5573 12.2223 34.2539 11.5931C34.8952 11.0097 35.5475 10.4405 36.1516 9.83425C36.8405 9.1422 37.5287 8.43075 37.9348 7.53611C37.9446 7.52117 37.9701 7.51046 37.9905 7.49995C38.0239 7.69285 37.9555 7.93343 37.8347 8.16148C37.2026 9.38052 36.2718 10.3879 35.2661 11.3399C34.3604 12.1958 33.3522 12.9489 32.3545 13.7064C32.3244 13.7319 32.2881 13.7333 32.2561 13.7103L32.2507 13.7056Z" fill="#00974C"/>
</svg>
