<svg width="85" height="43" viewBox="0 0 85 43" fill="none" xmlns="http://www.w3.org/2000/svg">
<path d="M83.052 29.9628C82.2444 31.9965 78.9374 37.2553 76.2431 37.2553C75.3172 37.2553 75.0666 35.8317 75.0666 34.1538C75.0666 32.0547 75.714 29.3744 75.714 28.5028C75.714 27.6312 74.7533 26.9557 73.702 26.9557C72.0172 26.9557 71.3767 28.0162 71.1957 30.5003C70.3951 32.4614 68.8356 35.7663 66.8653 35.7663C63.9552 35.7663 67.2691 25.6337 62.8761 25.6337C61.1426 25.6337 59.5622 28.2486 58.9148 29.8974C58.2325 31.5753 57.4945 33.1878 56.6869 35.0908C56.8749 31.5389 56.7148 31.183 56.8749 28.3793C59.0122 26.6361 61.1774 24.0866 63.092 21.4064C65.4103 18.2105 68.5989 12.7556 68.5989 8.52828C68.5989 3.4947 64.2964 -0.122511 59.9382 3.10247C54.3268 7.38065 53.0736 18.5664 52.6838 30.602C50.7414 34.7712 48.5623 37.0301 46.8775 37.0301C44.4617 37.0301 45.4851 30.0281 45.7357 28.6045C46.3553 25.2778 42.5819 24.6314 41.5585 27.8273C41.0642 29.3744 39.0243 34.4153 37.4718 34.4734C36.5459 34.5024 38.2794 29.0185 39.9781 29.0185C40.3193 29.0185 40.5351 29.0185 40.7231 28.757C41.2522 28.0815 40.0408 26.854 38.6484 26.854C35.9611 26.854 33.7054 29.7449 33.3712 32.5486C31.6725 36.5435 28.7554 40.9234 26.3326 40.9234C18.7858 40.9234 22.0301 9.90108 22.963 5.54299C24.2928 5.67374 26.0263 5.80448 27.8852 5.80448C32.7725 5.80448 38.4952 4.90381 40.0756 1.15586C40.2288 0.640153 39.3655 -0.166092 38.899 0.545728C37.813 3.02983 34.8472 3.74165 31.0111 3.74165C25.4137 3.74165 17.832 2.12916 11.4549 2.12916C6.29603 2.13643 1.96567 3.23321 0.0441564 7.23538C-0.234323 8.04163 0.879595 8.59365 1.28339 7.81646C2.73845 4.68591 6.29603 3.81429 10.0694 3.81429C13.1327 3.81429 16.4118 4.42442 18.7928 4.8457C18.1105 11.7823 13.7523 42.7392 25.3231 42.7392C29.0687 42.7392 31.9022 38.9695 33.775 35.1053C34.5547 36.5072 36.2674 36.9067 37.98 35.9333C39.1845 35.2578 40.361 33.4492 41.1965 31.8658C41.1965 35.0617 41.844 39.4198 45.4015 39.4198C47.5597 39.4198 50.2749 37.7129 52.6072 33.8269C52.5724 35.5411 52.5445 37.2626 52.5167 38.9695C52.7952 39.9355 53.5401 40.2914 54.3129 40.2914C56.7287 40.2914 56.8192 38.6426 60.5021 30.3841C60.7527 29.803 61.1844 29.0258 61.247 29.0258C61.247 29.0258 61.2749 37.8073 65.7306 37.8073C68.1881 37.8073 69.9286 36.0205 71.1887 33.8197C71.3906 36.667 72.3166 39.3908 74.8856 39.3908C79.0628 39.3908 82.8988 34.3209 84.3191 30.5439C84.507 29.8974 83.3931 29.4108 83.052 29.9628ZM62.354 5.52847C64.8881 2.78288 67.304 5.36867 67.304 8.65902C67.304 12.6975 64.2407 17.5713 62.0755 20.6655C60.5299 22.8954 58.7059 24.8638 57.035 26.44C57.404 19.7939 58.3021 10.01 62.354 5.5212V5.52847Z" fill="url(#paint0_linear_81_3171)"/>
<defs>
<linearGradient id="paint0_linear_81_3171" x1="0.00238448" y1="21.5081" x2="84.3399" y2="21.5081" gradientUnits="userSpaceOnUse">
<stop stop-color="#00AED3"/>
<stop offset="0.11" stop-color="#0E94C6"/>
<stop offset="0.23" stop-color="#1A7FBC"/>
<stop offset="0.37" stop-color="#2370B5"/>
<stop offset="0.54" stop-color="#2867B1"/>
<stop offset="0.78" stop-color="#2A65B0"/>
<stop offset="0.84" stop-color="#2768B1"/>
<stop offset="0.89" stop-color="#2174B7"/>
<stop offset="0.93" stop-color="#1686C0"/>
<stop offset="0.98" stop-color="#07A1CC"/>
<stop offset="1" stop-color="#00AED3"/>
</linearGradient>
</defs>
</svg>
