<svg width="176" height="75" viewBox="0 0 176 75" fill="none" xmlns="http://www.w3.org/2000/svg">
<g clip-path="url(#clip0_81_3066)">
<path d="M86.0002 34.4069C86.0002 35.3707 85.7651 36.1196 85.3018 36.6605C84.8385 37.2014 84.1885 37.4718 83.3449 37.4718C82.5843 37.4718 81.8099 37.2499 81.0146 36.8061V39.3232C81.9274 39.8086 82.8678 40.0582 83.8221 40.0582C85.3018 40.0582 86.4912 39.5451 87.3832 38.5258C88.3582 37.4233 88.8422 35.9879 88.8422 34.2197V25.4688L85.9864 27.0012V34.4L86.0002 34.4069Z" fill="url(#paint0_linear_81_3066)"/>
<path d="M130.51 20.0884C131.423 20.0884 131.88 19.6169 131.88 18.6669C131.88 17.7169 131.423 17.2939 130.51 17.2939C130.082 17.2939 129.743 17.4188 129.494 17.6684C129.245 17.918 129.121 18.2509 129.121 18.6669C129.121 19.6169 129.584 20.0884 130.517 20.0884H130.51Z" fill="url(#paint1_linear_81_3066)"/>
<path d="M130.78 21.9186C130.78 22.3901 130.919 22.7646 131.195 23.0419C131.472 23.3193 131.838 23.451 132.295 23.451C133.283 23.451 133.781 22.9379 133.781 21.9186C133.781 21.4609 133.65 21.1004 133.38 20.8299C133.111 20.5664 132.751 20.4277 132.295 20.4277C131.838 20.4277 131.472 20.5664 131.195 20.8438C130.919 21.1212 130.78 21.4748 130.78 21.9186Z" fill="url(#paint2_linear_81_3066)"/>
<path d="M128.775 23.4579C129.764 23.4579 130.262 22.9447 130.262 21.9254C130.262 21.4678 130.13 21.1072 129.861 20.8368C129.591 20.5733 129.231 20.4346 128.775 20.4346C128.319 20.4346 127.952 20.5733 127.676 20.8506C127.399 21.128 127.261 21.4816 127.261 21.9254C127.261 22.3969 127.399 22.7714 127.676 23.0488C127.952 23.3261 128.312 23.4579 128.775 23.4579Z" fill="url(#paint3_linear_81_3066)"/>
<path d="M137.57 23.4579C138.559 23.4579 139.057 22.9447 139.057 21.9254C139.057 21.4678 138.926 21.1072 138.656 20.8368C138.386 20.5733 138.027 20.4346 137.57 20.4346C137.114 20.4346 136.748 20.5733 136.471 20.8506C136.194 21.128 136.056 21.4816 136.056 21.9254C136.056 22.3969 136.194 22.7714 136.471 23.0488C136.748 23.3261 137.114 23.4579 137.57 23.4579Z" fill="url(#paint4_linear_81_3066)"/>
<path d="M141.063 23.4579C142.051 23.4579 142.549 22.9447 142.549 21.9254C142.549 21.4678 142.418 21.1072 142.148 20.8368C141.879 20.5733 141.519 20.4346 141.063 20.4346C140.606 20.4346 140.26 20.5733 139.977 20.8506C139.693 21.128 139.555 21.4816 139.555 21.9254C139.555 22.3692 139.693 22.7575 139.97 23.0349C140.247 23.3192 140.613 23.4579 141.07 23.4579H141.063Z" fill="url(#paint5_linear_81_3066)"/>
<path d="M163.55 31.2249C163.55 31.8212 163.425 32.2442 163.183 32.4938C162.941 32.7435 162.526 32.8683 161.952 32.8683H160.397C159.816 32.8683 159.401 32.7435 159.152 32.4938C158.903 32.2442 158.772 31.8212 158.772 31.2249V26.0728L155.895 27.6052V31.2249C155.895 31.8212 155.771 32.2442 155.529 32.4938C155.286 32.7435 154.872 32.8683 154.298 32.8683H152.742C152.161 32.8683 151.753 32.7435 151.511 32.4938C151.269 32.2442 151.145 31.8212 151.145 31.2249V26.6899L148.268 28.2016V31.2249C148.268 31.8212 148.143 32.2442 147.895 32.4938C147.646 32.7435 147.231 32.8683 146.65 32.8683H143.545C142.964 32.8683 142.556 32.7435 142.314 32.4938C142.072 32.2442 141.948 31.8212 141.948 31.2249V25.4765L139.071 26.9881V31.2249C139.071 31.8212 138.947 32.2442 138.705 32.4938C138.463 32.7435 138.048 32.8683 137.474 32.8683H134.736C134.155 32.8683 133.747 32.7435 133.505 32.4938C133.263 32.2442 133.138 31.8212 133.138 31.2249V25.4765L130.262 26.9881V31.2249C130.262 31.8212 130.137 32.2442 129.895 32.4938C129.653 32.7435 129.238 32.8683 128.664 32.8683H125.947C125.366 32.8683 124.951 32.7435 124.702 32.4938C124.453 32.2442 124.329 31.8212 124.329 31.2249V30.5592C124.329 28.999 123.976 27.7439 123.278 26.7801C122.441 25.6498 121.252 25.0812 119.717 25.0812C118.361 25.0812 117.276 25.5181 116.474 26.3848C115.547 27.3764 115.077 28.7702 115.077 30.5523V31.218C115.077 31.8143 114.952 32.2373 114.71 32.4869C114.468 32.7365 114.053 32.8614 113.48 32.8614H97.4856C96.9048 32.8614 96.4968 32.7365 96.2548 32.4869C96.0127 32.2373 95.8883 31.8143 95.8883 31.218V20.8652L93.0117 22.3769V31.3566C93.0117 32.5632 93.3367 33.5478 93.9936 34.3106C94.7542 35.1982 95.826 35.642 97.2159 35.642H113.756C114.835 35.642 115.741 35.3577 116.474 34.796C117.269 35.6697 118.348 36.0996 119.717 36.0996C121.086 36.0996 122.137 35.6628 122.96 34.796C123.658 35.3646 124.557 35.642 125.657 35.642H128.948C130.061 35.642 130.981 35.3438 131.714 34.7474C132.447 35.3438 133.367 35.642 134.48 35.642H137.771C138.885 35.642 139.804 35.3438 140.537 34.7474C141.27 35.3438 142.19 35.642 143.303 35.642H146.982C148.109 35.642 149.029 35.3091 149.748 34.6365C150.467 35.3091 151.387 35.642 152.514 35.642H154.775C155.854 35.6281 156.725 35.2883 157.382 34.6365C158.101 35.3091 159.02 35.642 160.148 35.642H162.409C163.584 35.6142 164.525 35.2536 165.244 34.5672C166.067 33.7905 166.475 32.7227 166.475 31.3566V25.4695L163.598 26.9812V31.218L163.55 31.2249ZM119.682 33.3329C118.507 33.3329 117.926 32.3829 117.926 30.4899C117.926 28.5968 118.514 27.7647 119.682 27.7647C120.851 27.7647 121.418 28.6731 121.418 30.4899C121.418 32.3066 120.837 33.3329 119.682 33.3329Z" fill="url(#paint6_linear_81_3066)"/>
<path d="M174.648 18.2574H172.387C172.186 18.0147 172.089 17.7789 172.089 17.5501C172.089 17.0924 172.338 16.8636 172.843 16.8636C173.209 16.8636 173.576 17.0231 173.942 17.342V16.0107C173.548 15.6917 173.12 15.5322 172.663 15.5322C172.158 15.5322 171.73 15.7056 171.37 16.0592C171.01 16.4129 170.831 16.8289 170.831 17.3212C170.831 17.6402 170.914 17.9523 171.08 18.2574H170.395L169.662 19.5887H173.915L174.648 18.2574Z" fill="url(#paint7_linear_81_3066)"/>
<path d="M173.417 35.6489V20.8652L170.541 22.4046V35.6489H173.417Z" fill="url(#paint8_linear_81_3066)"/>
<path d="M121.348 68.447C121.113 68.2945 120.823 68.2182 120.491 68.2182C120.207 68.2182 119.952 68.2945 119.723 68.447C119.537 68.5719 119.385 68.7452 119.26 68.9463V66.3945H118.333V73.0305H119.26V72.3995C119.364 72.6006 119.495 72.767 119.682 72.8919C119.903 73.0305 120.159 73.1068 120.449 73.1068C120.795 73.1068 121.086 73.0305 121.335 72.878C121.583 72.7254 121.763 72.5105 121.895 72.2262C122.026 71.9419 122.088 71.5952 122.088 71.193V70.1598C122.088 69.7507 122.026 69.404 121.902 69.1127C121.777 68.8215 121.597 68.6065 121.355 68.454L121.348 68.447ZM121.148 71.186C121.148 71.5258 121.065 71.7893 120.892 71.9765C120.726 72.1638 120.484 72.2539 120.18 72.2539C119.979 72.2539 119.813 72.2192 119.675 72.143C119.537 72.0667 119.433 71.9557 119.357 71.8171C119.281 71.6784 119.246 71.4981 119.246 71.297V70.0072C119.246 69.8061 119.281 69.6397 119.357 69.501C119.433 69.3624 119.537 69.2514 119.675 69.1821C119.813 69.1058 119.979 69.0711 120.18 69.0711C120.484 69.0711 120.726 69.1682 120.892 69.3554C121.058 69.5496 121.148 69.8131 121.148 70.1598V71.186Z" fill="url(#paint9_linear_81_3066)"/>
<path d="M124.944 71.6581L123.755 68.2881H122.808L124.522 72.9478L124.294 73.6413C124.218 73.8146 124.128 73.9325 124.025 74.0018C123.921 74.0712 123.783 74.1059 123.61 74.1059H123.423V75.0004H123.61C123.859 75.0004 124.073 74.9726 124.246 74.9172C124.419 74.8617 124.564 74.7715 124.682 74.6467C124.799 74.5219 124.896 74.3486 124.965 74.1336L126.977 68.2881H126.03L124.93 71.6581H124.944Z" fill="url(#paint10_linear_81_3066)"/>
<path d="M131.299 66.3877L128.858 73.0237H129.861L130.358 71.5675H133.028L133.525 73.0237H134.528L132.087 66.3877H131.292H131.299ZM130.663 70.6799L131.693 67.6705L132.723 70.6799H130.663Z" fill="url(#paint11_linear_81_3066)"/>
<path d="M137.598 68.2188C137.322 68.2188 137.066 68.295 136.831 68.4545C136.644 68.5793 136.492 68.7596 136.361 68.9676V68.2881H135.434V73.0241H136.361V70.0286C136.361 69.7373 136.444 69.5154 136.603 69.349C136.762 69.1826 136.99 69.1063 137.287 69.1063C137.453 69.1063 137.592 69.1341 137.716 69.1826C137.84 69.2311 137.944 69.3074 138.027 69.4114L138.636 68.5932C138.504 68.4684 138.352 68.3782 138.179 68.3158C138.006 68.2534 137.813 68.2188 137.592 68.2188H137.598Z" fill="url(#paint12_linear_81_3066)"/>
<path d="M142.107 68.4268C141.83 68.2881 141.492 68.2188 141.104 68.2188C140.745 68.2188 140.42 68.2812 140.129 68.399C139.839 68.5169 139.604 68.6903 139.424 68.9052L140.102 69.3698C140.24 69.2658 140.399 69.1826 140.579 69.1271C140.759 69.0717 140.945 69.037 141.132 69.037C141.436 69.037 141.671 69.1202 141.837 69.2935C142.003 69.4669 142.086 69.7096 142.086 70.0147V70.2158H140.786C140.254 70.2158 139.853 70.3337 139.59 70.5694C139.327 70.8052 139.196 71.1519 139.196 71.6234C139.196 72.1158 139.341 72.4833 139.625 72.726C139.915 72.9687 140.351 73.0865 140.931 73.0865C141.132 73.0865 141.305 73.0657 141.464 73.0241C141.623 72.9825 141.761 72.9201 141.879 72.8369C141.955 72.7814 142.024 72.719 142.086 72.6428V73.0172H142.971V69.9731C142.971 69.5987 142.895 69.2866 142.75 69.0231C142.605 68.7596 142.39 68.5585 142.114 68.4198L142.107 68.4268ZM142.079 71.8661C142.079 72.0256 141.989 72.1435 141.817 72.2198C141.644 72.296 141.381 72.3307 141.021 72.3307C140.696 72.3307 140.454 72.2752 140.295 72.1574C140.136 72.0395 140.053 71.8661 140.053 71.6234C140.053 71.4015 140.115 71.2351 140.233 71.1311C140.351 71.0202 140.53 70.9716 140.779 70.9716H142.079V71.8661Z" fill="url(#paint13_linear_81_3066)"/>
<path d="M147.397 68.447C147.162 68.2945 146.871 68.2182 146.539 68.2182C146.256 68.2182 146 68.2945 145.772 68.447C145.585 68.5719 145.433 68.7452 145.308 68.9463V66.3945H144.382V73.0305H145.308V72.3995C145.412 72.6006 145.544 72.767 145.73 72.8919C145.951 73.0305 146.207 73.1068 146.498 73.1068C146.844 73.1068 147.134 73.0305 147.383 72.878C147.632 72.7254 147.819 72.5105 147.943 72.2262C148.067 71.9419 148.137 71.5952 148.137 71.193V70.1598C148.137 69.7507 148.074 69.404 147.95 69.1127C147.825 68.8215 147.646 68.6065 147.404 68.454L147.397 68.447ZM147.196 71.186C147.196 71.5258 147.113 71.7893 146.94 71.9765C146.774 72.1638 146.532 72.2539 146.228 72.2539C146.028 72.2539 145.862 72.2192 145.723 72.143C145.585 72.0667 145.481 71.9557 145.405 71.8171C145.329 71.6784 145.295 71.4981 145.295 71.297V70.0072C145.295 69.8061 145.329 69.6397 145.405 69.501C145.481 69.3624 145.585 69.2514 145.723 69.1821C145.862 69.1058 146.028 69.0711 146.228 69.0711C146.532 69.0711 146.774 69.1682 146.94 69.3554C147.106 69.5496 147.196 69.8131 147.196 70.1598V71.186Z" fill="url(#paint14_linear_81_3066)"/>
<path d="M154.602 69.5844C154.332 69.4734 154 69.3763 153.599 69.2931C153.586 69.2931 153.565 69.2931 153.551 69.2862C153.537 69.2792 153.516 69.2862 153.503 69.2793C153.489 69.2793 153.482 69.2793 153.468 69.2793C153.454 69.2793 153.447 69.2793 153.433 69.2723C153.088 69.203 152.825 69.1406 152.631 69.0782C152.438 69.0158 152.279 68.9187 152.147 68.7869C152.016 68.6552 151.954 68.4749 151.954 68.2461C151.954 67.9063 152.078 67.6567 152.327 67.4694C152.576 67.2891 152.929 67.199 153.378 67.199C153.627 67.199 153.883 67.2475 154.132 67.3377C154.381 67.4278 154.637 67.5665 154.886 67.7537L155.411 67.0118C155.197 66.8592 154.975 66.7275 154.754 66.6235C154.533 66.5195 154.305 66.4432 154.076 66.3946C153.848 66.3461 153.613 66.3184 153.378 66.3184C152.88 66.3184 152.458 66.3946 152.106 66.5472C151.753 66.6997 151.483 66.9216 151.304 67.2129C151.117 67.5041 151.027 67.8508 151.027 68.2669C151.027 68.7384 151.124 69.099 151.324 69.3555C151.525 69.6121 151.76 69.7854 152.037 69.8825C152.313 69.9796 152.673 70.0628 153.115 70.1391L153.184 70.153C153.184 70.153 153.205 70.153 153.212 70.153C153.219 70.153 153.233 70.153 153.24 70.153C153.537 70.2084 153.786 70.2708 153.973 70.3332C154.159 70.3957 154.319 70.4997 154.436 70.6314C154.554 70.7632 154.616 70.9504 154.616 71.1792C154.616 71.5121 154.484 71.7617 154.222 71.942C153.959 72.1223 153.586 72.2055 153.108 72.2055C152.756 72.2055 152.424 72.15 152.12 72.0391C151.815 71.9281 151.539 71.7686 151.29 71.5467L150.709 72.2609C150.923 72.4412 151.158 72.5938 151.4 72.7186C151.649 72.8434 151.912 72.9336 152.203 72.989C152.493 73.0445 152.79 73.0792 153.108 73.0792C153.62 73.0792 154.056 73.0029 154.422 72.8503C154.782 72.6978 155.058 72.4828 155.252 72.1916C155.446 71.9073 155.536 71.5606 155.536 71.1515C155.536 70.7077 155.446 70.361 155.266 70.1114C155.086 69.8617 154.858 69.6814 154.595 69.5636L154.602 69.5844Z" fill="url(#paint15_linear_81_3066)"/>
<path d="M159.795 68.4476C159.56 68.295 159.27 68.2188 158.938 68.2188C158.654 68.2188 158.398 68.295 158.17 68.4476C157.983 68.5724 157.831 68.7457 157.707 68.9468V68.2881H156.78V74.9518H157.707V72.3931C157.811 72.5942 157.942 72.7606 158.129 72.8854C158.35 73.0241 158.606 73.1004 158.896 73.1004C159.242 73.1004 159.532 73.0241 159.781 72.8716C160.03 72.719 160.21 72.5041 160.341 72.2198C160.473 71.9355 160.535 71.5888 160.535 71.1866V70.1534C160.535 69.7443 160.473 69.3976 160.348 69.1063C160.224 68.8151 160.044 68.6001 159.802 68.4476H159.795ZM159.595 71.1866C159.595 71.5264 159.512 71.7899 159.339 71.9771C159.173 72.1643 158.931 72.2544 158.627 72.2544C158.426 72.2544 158.26 72.2198 158.122 72.1435C157.983 72.0672 157.88 71.9563 157.804 71.8176C157.728 71.6789 157.693 71.4986 157.693 71.2975V70.0078C157.693 69.8067 157.728 69.6403 157.804 69.5016C157.88 69.3629 157.983 69.2519 158.122 69.1826C158.26 69.1063 158.426 69.0717 158.627 69.0717C158.931 69.0717 159.173 69.1687 159.339 69.356C159.505 69.5501 159.595 69.8136 159.595 70.1603V71.1866Z" fill="url(#paint16_linear_81_3066)"/>
<path d="M164.539 68.4268C164.262 68.2881 163.923 68.2188 163.536 68.2188C163.176 68.2188 162.851 68.2812 162.561 68.399C162.271 68.5169 162.035 68.6903 161.856 68.9052L162.533 69.3698C162.672 69.2658 162.831 69.1826 163.01 69.1271C163.19 69.0717 163.377 69.037 163.564 69.037C163.868 69.037 164.103 69.1202 164.269 69.2935C164.435 69.4669 164.518 69.7096 164.518 70.0147V70.2158H163.218C162.685 70.2158 162.284 70.3337 162.022 70.5694C161.759 70.8052 161.627 71.1519 161.627 71.6234C161.627 72.1158 161.773 72.4833 162.063 72.726C162.353 72.9687 162.789 73.0865 163.37 73.0865C163.571 73.0865 163.743 73.0657 163.902 73.0241C164.061 72.9825 164.2 72.9201 164.317 72.8369C164.393 72.7814 164.463 72.719 164.525 72.6428V73.0172H165.41V69.9731C165.41 69.5987 165.334 69.2866 165.189 69.0231C165.043 68.7596 164.829 68.5585 164.552 68.4198L164.539 68.4268ZM164.511 71.8661C164.511 72.0256 164.421 72.1435 164.248 72.2198C164.075 72.296 163.813 72.3307 163.453 72.3307C163.128 72.3307 162.886 72.2752 162.727 72.1574C162.568 72.0395 162.485 71.8661 162.485 71.6234C162.485 71.4015 162.547 71.2351 162.665 71.1311C162.782 71.0202 162.969 70.9716 163.211 70.9716H164.511V71.8661Z" fill="url(#paint17_linear_81_3066)"/>
<path d="M167.892 69.4044C168.092 69.2033 168.369 69.1062 168.722 69.1062C168.915 69.1062 169.102 69.1478 169.282 69.231C169.462 69.3142 169.614 69.4321 169.752 69.5847L170.423 68.9814C170.305 68.8219 170.16 68.6832 169.987 68.5723C169.814 68.4613 169.621 68.3712 169.399 68.3157C169.185 68.2533 168.95 68.2256 168.708 68.2256C168.279 68.2256 167.906 68.3088 167.602 68.4683C167.297 68.6278 167.062 68.8566 166.903 69.1617C166.744 69.4668 166.661 69.8343 166.661 70.2642V71.0478C166.661 71.4846 166.744 71.8522 166.903 72.1642C167.062 72.4762 167.297 72.7051 167.602 72.8645C167.906 73.024 168.272 73.1072 168.708 73.1072C168.95 73.1072 169.178 73.0795 169.399 73.024C169.614 72.9686 169.814 72.8854 169.987 72.7675C170.16 72.6565 170.305 72.5248 170.423 72.3653L169.752 71.7204C169.621 71.8799 169.469 72.0047 169.289 72.0949C169.109 72.185 168.922 72.2266 168.722 72.2266C168.362 72.2266 168.086 72.1226 167.885 71.9215C167.691 71.7204 167.595 71.4292 167.595 71.0547V70.2712C167.595 69.9037 167.691 69.6263 167.892 69.4252V69.4044Z" fill="url(#paint18_linear_81_3066)"/>
<path d="M175.166 70.722C175.166 70.2019 175.09 69.7512 174.945 69.3768C174.8 69.0023 174.586 68.718 174.309 68.5169C174.032 68.3158 173.694 68.2188 173.299 68.2188C172.878 68.2188 172.525 68.3089 172.228 68.4823C171.93 68.6556 171.702 68.9052 171.55 69.2381C171.391 69.5709 171.315 69.9662 171.315 70.4377V70.9716C171.315 71.4223 171.398 71.8037 171.557 72.1227C171.716 72.4417 171.958 72.6844 172.262 72.8438C172.567 73.0033 172.947 73.0935 173.382 73.0935C173.68 73.0935 173.97 73.0311 174.261 72.9063C174.551 72.7814 174.814 72.6081 175.049 72.3862L174.44 71.776C174.295 71.9147 174.129 72.0187 173.943 72.095C173.756 72.1712 173.569 72.2059 173.382 72.2059C173.002 72.2059 172.712 72.1019 172.504 71.8939C172.304 71.6928 172.207 71.4015 172.2 71.034H175.173V70.722H175.166ZM172.2 70.2851C172.214 69.9176 172.304 69.6195 172.484 69.4114C172.677 69.1826 172.947 69.0647 173.299 69.0647C173.59 69.0647 173.818 69.1687 173.991 69.3837C174.164 69.5987 174.261 69.8968 174.288 70.2851H172.2Z" fill="url(#paint19_linear_81_3066)"/>
<path d="M28.3788 41.3135H25.3018V63.2809H28.3788V41.3135Z" fill="url(#paint20_linear_81_3066)"/>
<path d="M40.729 47.3673C39.7817 47.3673 38.9242 47.6238 38.1428 48.137C37.5274 48.5461 36.995 49.0939 36.5663 49.7804V47.5961H33.4961V63.2812H36.5663V53.3515C36.5663 52.3876 36.8429 51.6387 37.3891 51.1048C37.9423 50.5709 38.7099 50.3004 39.7194 50.3004C40.729 50.3004 41.5588 50.6055 42.1258 51.2019C42.6997 51.8052 42.9832 52.665 42.9832 53.7675V63.2743H46.0603V53.7537C46.0603 51.7219 45.597 50.1479 44.6635 49.0315C43.73 47.922 42.4162 47.3604 40.7221 47.3604L40.729 47.3673Z" fill="url(#paint21_linear_81_3066)"/>
<path d="M55.6578 58.7875L51.834 47.5957H48.6255L54.4962 63.2808H56.8126L62.6902 47.5957H59.4817L55.6578 58.7875Z" fill="url(#paint22_linear_81_3066)"/>
<path d="M73.657 60.1951C73.0416 60.4517 72.4262 60.5765 71.8039 60.5765C70.5454 60.5765 69.5773 60.2298 68.8997 59.5364C68.5124 59.148 68.2358 58.6557 68.0768 58.0732H65.0688C65.1933 58.8984 65.4284 59.6473 65.7603 60.2991C66.2997 61.3531 67.0811 62.1505 68.1044 62.6914C69.1278 63.2323 70.3656 63.5027 71.8108 63.5027C72.7858 63.5027 73.7538 63.3016 74.715 62.8925C75.6762 62.4834 76.5474 61.9078 77.3219 61.1589L75.3028 59.1342C74.8256 59.5849 74.2725 59.9455 73.664 60.1951H73.657Z" fill="url(#paint23_linear_81_3066)"/>
<path d="M74.8813 48.3518C73.9616 47.7 72.8414 47.3672 71.5414 47.3672C70.1515 47.3672 68.9691 47.6584 67.9872 48.234C67.0053 48.8095 66.2516 49.6416 65.733 50.7372C65.2143 51.8397 64.9585 53.1572 64.9585 54.7105V56.4787C64.9585 56.548 64.9585 56.6104 64.9585 56.6798H77.7301V55.6466C77.7301 53.913 77.4881 52.4291 76.9972 51.1949C76.5062 49.9606 75.8009 49.0106 74.8813 48.3588V48.3518ZM67.8904 54.1974C67.9388 52.9631 68.2569 51.9992 68.8377 51.2989C69.4739 50.5361 70.3797 50.1478 71.5483 50.1478C72.5026 50.1478 73.2632 50.5014 73.8302 51.2087C74.3972 51.9229 74.7291 52.9145 74.8121 54.1904H67.8904V54.1974Z" fill="url(#paint24_linear_81_3066)"/>
<path d="M85.0045 60.2578C84.1678 59.9319 83.3312 59.4535 82.4875 58.8086L80.6689 61.0622C81.2567 61.6031 81.9067 62.0607 82.6051 62.4213C83.3104 62.7819 84.0641 63.0592 84.8732 63.2326C85.6822 63.4129 86.5535 63.503 87.4731 63.503C87.729 63.503 87.9848 63.503 88.2268 63.4822V60.7086C87.9917 60.7294 87.7359 60.7363 87.4731 60.7363C86.6641 60.7363 85.8343 60.5768 85.0045 60.2578Z" fill="url(#paint25_linear_81_3066)"/>
<path d="M91.3108 54.3222C90.5433 54.1003 89.6098 53.9547 88.5172 53.8784C88.4896 53.8714 88.455 53.8645 88.4273 53.8645H88.3375C88.2683 53.8576 88.1992 53.8437 88.1369 53.8437C88.0678 53.8437 88.0055 53.8437 87.9433 53.8298C87.1066 53.7813 86.4635 53.7189 86.0141 53.6496C85.5646 53.5802 85.1843 53.4415 84.8939 53.2266C84.5965 53.0185 84.4513 52.6996 84.4513 52.2766C84.4513 51.5624 84.7072 51.0284 85.2327 50.6679C85.7582 50.3142 86.5396 50.127 87.5837 50.127C88.3098 50.127 89.0428 50.2587 89.8034 50.5084C90.564 50.7649 91.3316 51.1394 92.1129 51.6456L93.9661 49.392C93.3369 48.9412 92.6938 48.5668 92.023 48.2686C91.3454 47.9705 90.6401 47.7486 89.9071 47.596C89.1672 47.4435 88.3928 47.3672 87.5837 47.3672C86.2353 47.3672 85.1151 47.5544 84.2231 47.9219C83.3242 48.2894 82.6535 48.8442 82.204 49.5792C81.7546 50.3142 81.5264 51.2365 81.5264 52.3459C81.5264 53.4554 81.7615 54.3014 82.2248 54.8977C82.6881 55.4871 83.2758 55.8962 83.9811 56.1112C84.6864 56.3261 85.5439 56.4787 86.5603 56.555C86.6018 56.555 86.6433 56.555 86.6779 56.5619C86.7194 56.5619 86.7609 56.5619 86.7954 56.5619C86.8784 56.5758 86.9614 56.5827 87.0513 56.5827C87.1412 56.5896 87.2242 56.5896 87.3071 56.5896C88.1992 56.659 88.8906 56.7422 89.3816 56.8254C89.8725 56.9086 90.2874 57.082 90.6124 57.3316C90.9443 57.5812 91.1103 57.9557 91.1103 58.4619C91.1103 59.2177 90.806 59.7863 90.1975 60.1607C90.0247 60.2648 89.8241 60.3618 89.6029 60.4381V63.3297C90.163 63.2395 90.6677 63.1078 91.1172 62.9344C92.0853 62.56 92.8113 62.0052 93.2885 61.2633C93.7725 60.5213 94.0145 59.5921 94.0145 58.4619C94.0145 57.2276 93.7517 56.2776 93.2331 55.6258C92.7076 54.974 92.0645 54.5302 91.297 54.3152L91.3108 54.3222Z" fill="url(#paint26_linear_81_3066)"/>
<path d="M101.42 43.0332H98.35V47.5959H96.7319V50.3765H98.35V59.1968C98.35 60.5697 98.6404 61.6029 99.2282 62.3033C99.8159 63.0036 100.743 63.3503 102.008 63.3503H103.785V60.4241H102.305C102.015 60.4241 101.794 60.3201 101.641 60.1121C101.489 59.904 101.413 59.6128 101.413 59.2314V50.3765H103.778V47.5959H101.413V43.0332H101.42Z" fill="url(#paint27_linear_81_3066)"/>
<path d="M120.415 63.2812V53.6566C120.415 52.5818 120.678 51.7635 121.203 51.1811C121.722 50.5917 122.462 50.3074 123.416 50.3074C124.453 50.3074 125.255 50.6125 125.822 51.2088C126.396 51.8121 126.68 52.6719 126.68 53.7745V63.2812H129.757V53.7606C129.757 52.4154 129.549 51.2574 129.134 50.3004C128.72 49.3435 128.111 48.6154 127.309 48.1162C126.507 47.6169 125.553 47.3673 124.426 47.3673C123.451 47.3673 122.559 47.6516 121.756 48.2202C120.989 48.7611 120.36 49.5099 119.882 50.4738C119.862 50.4183 119.841 50.3559 119.813 50.2935C119.405 49.3366 118.818 48.6085 118.043 48.1092C117.269 47.61 116.335 47.3604 115.243 47.3604C114.295 47.3604 113.438 47.6169 112.657 48.13C112.587 48.1717 112.525 48.2202 112.463 48.2687V50.6818C112.94 50.4183 113.528 50.2935 114.226 50.2935C115.222 50.2935 115.989 50.5986 116.536 51.1949C117.075 51.7982 117.345 52.6581 117.345 53.7606V63.2673H120.415V63.2812Z" fill="url(#paint28_linear_81_3066)"/>
<path d="M108.003 63.2808H111.08V53.3511V49.78V47.5957H108.003V63.2808Z" fill="url(#paint29_linear_81_3066)"/>
<path d="M146.747 55.6465C146.747 53.9129 146.505 52.429 146.014 51.1948C145.523 49.9605 144.818 49.0105 143.898 48.3587C142.978 47.7069 141.858 47.374 140.558 47.374C139.168 47.374 137.986 47.6653 137.004 48.2408C136.022 48.8163 135.268 49.6484 134.75 50.744C134.231 51.8466 133.975 53.1641 133.975 54.7173V56.43H146.754V55.6534L146.747 55.6465ZM136.9 54.1973C136.948 52.963 137.267 51.9991 137.847 51.2988C138.484 50.536 139.389 50.1477 140.558 50.1477C141.512 50.1477 142.273 50.5013 142.84 51.2086C143.407 51.9228 143.739 52.9144 143.822 54.1903H136.9V54.1973Z" fill="url(#paint30_linear_81_3066)"/>
<path d="M144.32 59.1348C143.843 59.5855 143.289 59.9461 142.681 60.1957C142.065 60.4523 141.45 60.5771 140.828 60.5771C139.569 60.5771 138.601 60.2304 137.923 59.537C137.481 59.0932 137.184 58.5246 137.031 57.8242H134.058C134.169 58.7534 134.411 59.5786 134.784 60.2997C135.324 61.3537 136.105 62.1511 137.128 62.692C138.152 63.2329 139.389 63.5033 140.835 63.5033C141.81 63.5033 142.778 63.3022 143.739 62.8931C144.7 62.484 145.571 61.9084 146.346 61.1596L144.327 59.1348H144.32Z" fill="url(#paint31_linear_81_3066)"/>
<path d="M150.965 47.5961V63.2812H154.042V53.3515C154.042 52.3876 154.312 51.6387 154.865 51.1048C155.411 50.5709 156.186 50.3004 157.188 50.3004C158.191 50.3004 159.028 50.6055 159.595 51.2019C160.169 51.8052 160.459 52.665 160.459 53.7675V63.2743H163.529V53.7537C163.529 51.7219 163.066 50.1479 162.132 49.0315C161.206 47.922 159.892 47.3604 158.191 47.3604C157.25 47.3604 156.386 47.6169 155.605 48.13C154.989 48.5392 154.464 49.08 154.035 49.7665V47.5892H150.958L150.965 47.5961Z" fill="url(#paint32_linear_81_3066)"/>
<path d="M168.604 59.1968C168.604 60.5697 168.895 61.6029 169.489 62.3033C170.077 63.0036 171.004 63.3503 172.269 63.3503H174.046V60.4241H172.573C172.283 60.4241 172.062 60.3201 171.91 60.1121C171.757 59.904 171.681 59.6128 171.681 59.2314V50.3765H174.046V47.5959H171.681V43.0332H168.611V47.5959H167V50.3765H168.611V59.1968H168.604Z" fill="url(#paint33_linear_81_3066)"/>
<path d="M79.9703 17.3977C78.8086 16.205 76.3953 16.0039 75.2613 17.3977C71.1608 22.4249 67.0673 27.4591 62.9668 32.4864C53.4174 25.0877 43.8612 17.682 34.3118 10.2832C32.832 9.13907 31.3523 7.98799 29.8656 6.84385C28.3374 5.65811 26.263 6.74678 25.3087 8.04347C21.6162 13.043 17.9168 18.0425 14.2243 23.0351C13.1456 24.4913 13.9961 26.7449 15.4205 27.6048C17.1008 28.6172 18.9125 27.8475 19.9774 26.4052C22.93 22.4111 25.8896 18.4101 28.8422 14.416C38.357 21.787 47.8648 29.158 57.3796 36.5221C58.8594 37.6662 60.3391 38.8173 61.8258 39.9615C62.8838 40.7797 65.0205 40.4746 65.8572 39.4414C70.5592 33.6652 75.2682 27.896 79.9703 22.1198C81.1182 20.7122 81.3187 18.7776 79.9703 17.3977Z" fill="url(#paint34_linear_81_3066)"/>
<path d="M11.8457 28.9437C10.2899 29.1032 9.16279 30.4831 9.308 32.0433C9.46704 33.6035 10.8569 34.7407 12.4127 34.5812C13.9617 34.4217 15.0957 33.0418 14.9297 31.4747C14.7707 29.9145 13.3947 28.7842 11.8457 28.9437Z" fill="url(#paint35_linear_81_3066)"/>
<path d="M5.87107 35.815C4.83385 35.919 4.07322 36.8552 4.17695 37.8953C4.28758 38.9285 5.21417 39.6982 6.25139 39.5942C7.28861 39.4901 8.04924 38.554 7.94552 37.5139C7.8418 36.4738 6.92213 35.718 5.87107 35.815Z" fill="url(#paint36_linear_81_3066)"/>
<path d="M1.07939 42.1594C0.519293 42.208 0.104405 42.7142 0.173553 43.2897C0.221956 43.8514 0.733652 44.2744 1.28684 44.205C1.86077 44.1495 2.27565 43.6433 2.21342 43.0817C2.15119 42.52 1.65332 42.097 1.07939 42.1594Z" fill="url(#paint37_linear_81_3066)"/>
<path d="M84.2782 15.9971C85.8202 15.7266 86.8505 14.2705 86.5877 12.7242C86.3181 11.1778 84.8521 10.1446 83.3101 10.4151C81.775 10.6855 80.7378 12.1417 81.0144 13.6949C81.2841 15.2413 82.7362 16.2744 84.2713 16.004L84.2782 15.9971Z" fill="url(#paint38_linear_81_3066)"/>
<path d="M89.7547 8.71603C90.785 8.53574 91.4696 7.55109 91.2967 6.52483C91.1169 5.50551 90.1351 4.80516 89.1117 4.97851C88.0814 5.1588 87.3968 6.14346 87.5697 7.16971C87.7494 8.2029 88.7175 8.88939 89.7547 8.71603Z" fill="url(#paint39_linear_81_3066)"/>
<path d="M94.0834 2.04584C94.6365 1.9557 95.0169 1.42177 94.9131 0.853166C94.8232 0.298432 94.2839 -0.0829471 93.7376 0.0141313C93.1706 0.11121 92.7903 0.645141 92.894 1.20681C92.9977 1.76848 93.5233 2.14292 94.0903 2.04584H94.0834Z" fill="url(#paint40_linear_81_3066)"/>
</g>
<defs>
<linearGradient id="paint0_linear_81_3066" x1="3.43044" y1="43.0677" x2="199.164" y2="18.9452" gradientUnits="userSpaceOnUse">
<stop stop-color="#A377AA"/>
<stop offset="0.25" stop-color="#9B65AA"/>
<stop offset="0.48" stop-color="#7859A5"/>
<stop offset="0.75" stop-color="#6A4E9D"/>
<stop offset="1" stop-color="#0E0B36"/>
</linearGradient>
<linearGradient id="paint1_linear_81_3066" x1="2.38629" y1="34.567" x2="198.112" y2="10.4515" gradientUnits="userSpaceOnUse">
<stop stop-color="#A377AA"/>
<stop offset="0.25" stop-color="#9B65AA"/>
<stop offset="0.48" stop-color="#7859A5"/>
<stop offset="0.75" stop-color="#6A4E9D"/>
<stop offset="1" stop-color="#0E0B36"/>
</linearGradient>
<linearGradient id="paint2_linear_81_3066" x1="2.80801" y1="37.992" x2="198.534" y2="13.8695" gradientUnits="userSpaceOnUse">
<stop stop-color="#A377AA"/>
<stop offset="0.25" stop-color="#9B65AA"/>
<stop offset="0.48" stop-color="#7859A5"/>
<stop offset="0.75" stop-color="#6A4E9D"/>
<stop offset="1" stop-color="#0E0B36"/>
</linearGradient>
<linearGradient id="paint3_linear_81_3066" x1="2.75279" y1="37.562" x2="198.486" y2="13.4395" gradientUnits="userSpaceOnUse">
<stop stop-color="#A377AA"/>
<stop offset="0.25" stop-color="#9B65AA"/>
<stop offset="0.48" stop-color="#7859A5"/>
<stop offset="0.75" stop-color="#6A4E9D"/>
<stop offset="1" stop-color="#0E0B36"/>
</linearGradient>
<linearGradient id="paint4_linear_81_3066" x1="2.88395" y1="38.6368" x2="198.617" y2="14.5143" gradientUnits="userSpaceOnUse">
<stop stop-color="#A377AA"/>
<stop offset="0.25" stop-color="#9B65AA"/>
<stop offset="0.48" stop-color="#7859A5"/>
<stop offset="0.75" stop-color="#6A4E9D"/>
<stop offset="1" stop-color="#0E0B36"/>
</linearGradient>
<linearGradient id="paint5_linear_81_3066" x1="2.93923" y1="39.0598" x2="198.666" y2="14.9442" gradientUnits="userSpaceOnUse">
<stop stop-color="#A377AA"/>
<stop offset="0.25" stop-color="#9B65AA"/>
<stop offset="0.48" stop-color="#7859A5"/>
<stop offset="0.75" stop-color="#6A4E9D"/>
<stop offset="1" stop-color="#0E0B36"/>
</linearGradient>
<linearGradient id="paint6_linear_81_3066" x1="3.52717" y1="43.8312" x2="199.253" y2="19.7156" gradientUnits="userSpaceOnUse">
<stop stop-color="#A377AA"/>
<stop offset="0.25" stop-color="#9B65AA"/>
<stop offset="0.48" stop-color="#7859A5"/>
<stop offset="0.75" stop-color="#6A4E9D"/>
<stop offset="1" stop-color="#0E0B36"/>
</linearGradient>
<linearGradient id="paint7_linear_81_3066" x1="2.89057" y1="38.6646" x2="198.617" y2="14.5421" gradientUnits="userSpaceOnUse">
<stop stop-color="#A377AA"/>
<stop offset="0.25" stop-color="#9B65AA"/>
<stop offset="0.48" stop-color="#7859A5"/>
<stop offset="0.75" stop-color="#6A4E9D"/>
<stop offset="1" stop-color="#0E0B36"/>
</linearGradient>
<linearGradient id="paint8_linear_81_3066" x1="4.1908" y1="49.226" x2="199.917" y2="25.1104" gradientUnits="userSpaceOnUse">
<stop stop-color="#A377AA"/>
<stop offset="0.25" stop-color="#9B65AA"/>
<stop offset="0.48" stop-color="#7859A5"/>
<stop offset="0.75" stop-color="#6A4E9D"/>
<stop offset="1" stop-color="#0E0B36"/>
</linearGradient>
<linearGradient id="paint9_linear_81_3066" x1="8.41551" y1="83.5011" x2="204.142" y2="59.3786" gradientUnits="userSpaceOnUse">
<stop stop-color="#A377AA"/>
<stop offset="0.25" stop-color="#9B65AA"/>
<stop offset="0.48" stop-color="#7859A5"/>
<stop offset="0.75" stop-color="#6A4E9D"/>
<stop offset="1" stop-color="#0E0B36"/>
</linearGradient>
<linearGradient id="paint10_linear_81_3066" x1="8.70638" y1="85.8454" x2="204.433" y2="61.7229" gradientUnits="userSpaceOnUse">
<stop stop-color="#A377AA"/>
<stop offset="0.25" stop-color="#9B65AA"/>
<stop offset="0.48" stop-color="#7859A5"/>
<stop offset="0.75" stop-color="#6A4E9D"/>
<stop offset="1" stop-color="#0E0B36"/>
</linearGradient>
<linearGradient id="paint11_linear_81_3066" x1="8.61633" y1="85.11" x2="204.343" y2="60.9875" gradientUnits="userSpaceOnUse">
<stop stop-color="#A377AA"/>
<stop offset="0.25" stop-color="#9B65AA"/>
<stop offset="0.48" stop-color="#7859A5"/>
<stop offset="0.75" stop-color="#6A4E9D"/>
<stop offset="1" stop-color="#0E0B36"/>
</linearGradient>
<linearGradient id="paint12_linear_81_3066" x1="8.77538" y1="86.4071" x2="204.502" y2="62.2914" gradientUnits="userSpaceOnUse">
<stop stop-color="#A377AA"/>
<stop offset="0.25" stop-color="#9B65AA"/>
<stop offset="0.48" stop-color="#7859A5"/>
<stop offset="0.75" stop-color="#6A4E9D"/>
<stop offset="1" stop-color="#0E0B36"/>
</linearGradient>
<linearGradient id="paint13_linear_81_3066" x1="8.85839" y1="87.1144" x2="204.592" y2="62.9918" gradientUnits="userSpaceOnUse">
<stop stop-color="#A377AA"/>
<stop offset="0.25" stop-color="#9B65AA"/>
<stop offset="0.48" stop-color="#7859A5"/>
<stop offset="0.75" stop-color="#6A4E9D"/>
<stop offset="1" stop-color="#0E0B36"/>
</linearGradient>
<linearGradient id="paint14_linear_81_3066" x1="8.80987" y1="86.677" x2="204.536" y2="62.5613" gradientUnits="userSpaceOnUse">
<stop stop-color="#A377AA"/>
<stop offset="0.25" stop-color="#9B65AA"/>
<stop offset="0.48" stop-color="#7859A5"/>
<stop offset="0.75" stop-color="#6A4E9D"/>
<stop offset="1" stop-color="#0E0B36"/>
</linearGradient>
<linearGradient id="paint15_linear_81_3066" x1="8.92091" y1="87.5924" x2="204.647" y2="63.4699" gradientUnits="userSpaceOnUse">
<stop stop-color="#A377AA"/>
<stop offset="0.25" stop-color="#9B65AA"/>
<stop offset="0.48" stop-color="#7859A5"/>
<stop offset="0.75" stop-color="#6A4E9D"/>
<stop offset="1" stop-color="#0E0B36"/>
</linearGradient>
<linearGradient id="paint16_linear_81_3066" x1="9.21152" y1="89.9643" x2="204.938" y2="65.8419" gradientUnits="userSpaceOnUse">
<stop stop-color="#A377AA"/>
<stop offset="0.25" stop-color="#9B65AA"/>
<stop offset="0.48" stop-color="#7859A5"/>
<stop offset="0.75" stop-color="#6A4E9D"/>
<stop offset="1" stop-color="#0E0B36"/>
</linearGradient>
<linearGradient id="paint17_linear_81_3066" x1="9.19735" y1="89.8464" x2="204.924" y2="65.7309" gradientUnits="userSpaceOnUse">
<stop stop-color="#A377AA"/>
<stop offset="0.25" stop-color="#9B65AA"/>
<stop offset="0.48" stop-color="#7859A5"/>
<stop offset="0.75" stop-color="#6A4E9D"/>
<stop offset="1" stop-color="#0E0B36"/>
</linearGradient>
<linearGradient id="paint18_linear_81_3066" x1="9.26615" y1="90.4149" x2="204.993" y2="66.2924" gradientUnits="userSpaceOnUse">
<stop stop-color="#A377AA"/>
<stop offset="0.25" stop-color="#9B65AA"/>
<stop offset="0.48" stop-color="#7859A5"/>
<stop offset="0.75" stop-color="#6A4E9D"/>
<stop offset="1" stop-color="#0E0B36"/>
</linearGradient>
<linearGradient id="paint19_linear_81_3066" x1="9.33548" y1="90.9767" x2="205.062" y2="66.8542" gradientUnits="userSpaceOnUse">
<stop stop-color="#A377AA"/>
<stop offset="0.25" stop-color="#9B65AA"/>
<stop offset="0.48" stop-color="#7859A5"/>
<stop offset="0.75" stop-color="#6A4E9D"/>
<stop offset="1" stop-color="#0E0B36"/>
</linearGradient>
<linearGradient id="paint20_linear_81_3066" x1="4.90307" y1="55.0154" x2="200.636" y2="30.8929" gradientUnits="userSpaceOnUse">
<stop stop-color="#A377AA"/>
<stop offset="0.25" stop-color="#9B65AA"/>
<stop offset="0.48" stop-color="#7859A5"/>
<stop offset="0.75" stop-color="#6A4E9D"/>
<stop offset="1" stop-color="#0E0B36"/>
</linearGradient>
<linearGradient id="paint21_linear_81_3066" x1="5.4842" y1="59.6893" x2="201.21" y2="35.5668" gradientUnits="userSpaceOnUse">
<stop stop-color="#A377AA"/>
<stop offset="0.25" stop-color="#9B65AA"/>
<stop offset="0.48" stop-color="#7859A5"/>
<stop offset="0.75" stop-color="#6A4E9D"/>
<stop offset="1" stop-color="#0E0B36"/>
</linearGradient>
<linearGradient id="paint22_linear_81_3066" x1="5.67762" y1="61.2699" x2="201.404" y2="37.1474" gradientUnits="userSpaceOnUse">
<stop stop-color="#A377AA"/>
<stop offset="0.25" stop-color="#9B65AA"/>
<stop offset="0.48" stop-color="#7859A5"/>
<stop offset="0.75" stop-color="#6A4E9D"/>
<stop offset="1" stop-color="#0E0B36"/>
</linearGradient>
<linearGradient id="paint23_linear_81_3066" x1="6.56263" y1="68.4814" x2="202.296" y2="44.3589" gradientUnits="userSpaceOnUse">
<stop stop-color="#A377AA"/>
<stop offset="0.25" stop-color="#9B65AA"/>
<stop offset="0.48" stop-color="#7859A5"/>
<stop offset="0.75" stop-color="#6A4E9D"/>
<stop offset="1" stop-color="#0E0B36"/>
</linearGradient>
<linearGradient id="paint24_linear_81_3066" x1="5.58793" y1="60.5421" x2="201.314" y2="36.4265" gradientUnits="userSpaceOnUse">
<stop stop-color="#A377AA"/>
<stop offset="0.25" stop-color="#9B65AA"/>
<stop offset="0.48" stop-color="#7859A5"/>
<stop offset="0.75" stop-color="#6A4E9D"/>
<stop offset="1" stop-color="#0E0B36"/>
</linearGradient>
<linearGradient id="paint25_linear_81_3066" x1="6.86027" y1="70.8741" x2="202.587" y2="46.7516" gradientUnits="userSpaceOnUse">
<stop stop-color="#A377AA"/>
<stop offset="0.25" stop-color="#9B65AA"/>
<stop offset="0.48" stop-color="#7859A5"/>
<stop offset="0.75" stop-color="#6A4E9D"/>
<stop offset="1" stop-color="#0E0B36"/>
</linearGradient>
<linearGradient id="paint26_linear_81_3066" x1="6.20335" y1="65.5209" x2="201.93" y2="41.3984" gradientUnits="userSpaceOnUse">
<stop stop-color="#A377AA"/>
<stop offset="0.25" stop-color="#9B65AA"/>
<stop offset="0.48" stop-color="#7859A5"/>
<stop offset="0.75" stop-color="#6A4E9D"/>
<stop offset="1" stop-color="#0E0B36"/>
</linearGradient>
<linearGradient id="paint27_linear_81_3066" x1="6.134" y1="64.9591" x2="201.86" y2="40.8365" gradientUnits="userSpaceOnUse">
<stop stop-color="#A377AA"/>
<stop offset="0.25" stop-color="#9B65AA"/>
<stop offset="0.48" stop-color="#7859A5"/>
<stop offset="0.75" stop-color="#6A4E9D"/>
<stop offset="1" stop-color="#0E0B36"/>
</linearGradient>
<linearGradient id="paint28_linear_81_3066" x1="6.70776" y1="69.6537" x2="202.434" y2="45.5381" gradientUnits="userSpaceOnUse">
<stop stop-color="#A377AA"/>
<stop offset="0.25" stop-color="#9B65AA"/>
<stop offset="0.48" stop-color="#7859A5"/>
<stop offset="0.75" stop-color="#6A4E9D"/>
<stop offset="1" stop-color="#0E0B36"/>
</linearGradient>
<linearGradient id="paint29_linear_81_3066" x1="6.52818" y1="68.2041" x2="202.261" y2="44.0816" gradientUnits="userSpaceOnUse">
<stop stop-color="#A377AA"/>
<stop offset="0.25" stop-color="#9B65AA"/>
<stop offset="0.48" stop-color="#7859A5"/>
<stop offset="0.75" stop-color="#6A4E9D"/>
<stop offset="1" stop-color="#0E0B36"/>
</linearGradient>
<linearGradient id="paint30_linear_81_3066" x1="6.61114" y1="68.8422" x2="202.338" y2="44.7266" gradientUnits="userSpaceOnUse">
<stop stop-color="#A377AA"/>
<stop offset="0.25" stop-color="#9B65AA"/>
<stop offset="0.48" stop-color="#7859A5"/>
<stop offset="0.75" stop-color="#6A4E9D"/>
<stop offset="1" stop-color="#0E0B36"/>
</linearGradient>
<linearGradient id="paint31_linear_81_3066" x1="7.58632" y1="76.7822" x2="203.312" y2="52.6598" gradientUnits="userSpaceOnUse">
<stop stop-color="#A377AA"/>
<stop offset="0.25" stop-color="#9B65AA"/>
<stop offset="0.48" stop-color="#7859A5"/>
<stop offset="0.75" stop-color="#6A4E9D"/>
<stop offset="1" stop-color="#0E0B36"/>
</linearGradient>
<linearGradient id="paint32_linear_81_3066" x1="7.24758" y1="74.0292" x2="202.974" y2="49.9067" gradientUnits="userSpaceOnUse">
<stop stop-color="#A377AA"/>
<stop offset="0.25" stop-color="#9B65AA"/>
<stop offset="0.48" stop-color="#7859A5"/>
<stop offset="0.75" stop-color="#6A4E9D"/>
<stop offset="1" stop-color="#0E0B36"/>
</linearGradient>
<linearGradient id="paint33_linear_81_3066" x1="7.18488" y1="73.5366" x2="202.918" y2="49.4141" gradientUnits="userSpaceOnUse">
<stop stop-color="#A377AA"/>
<stop offset="0.25" stop-color="#9B65AA"/>
<stop offset="0.48" stop-color="#7859A5"/>
<stop offset="0.75" stop-color="#6A4E9D"/>
<stop offset="1" stop-color="#0E0B36"/>
</linearGradient>
<linearGradient id="paint34_linear_81_3066" x1="1.68081" y1="28.8598" x2="197.407" y2="4.74425" gradientUnits="userSpaceOnUse">
<stop stop-color="#A377AA"/>
<stop offset="0.25" stop-color="#9B65AA"/>
<stop offset="0.48" stop-color="#7859A5"/>
<stop offset="0.75" stop-color="#6A4E9D"/>
<stop offset="1" stop-color="#0E0B36"/>
</linearGradient>
<linearGradient id="paint35_linear_81_3066" x1="2.19266" y1="32.9933" x2="197.919" y2="8.87077" gradientUnits="userSpaceOnUse">
<stop stop-color="#A377AA"/>
<stop offset="0.25" stop-color="#9B65AA"/>
<stop offset="0.48" stop-color="#7859A5"/>
<stop offset="0.75" stop-color="#6A4E9D"/>
<stop offset="1" stop-color="#0E0B36"/>
</linearGradient>
<linearGradient id="paint36_linear_81_3066" x1="2.82164" y1="38.1033" x2="198.548" y2="13.9877" gradientUnits="userSpaceOnUse">
<stop stop-color="#A377AA"/>
<stop offset="0.25" stop-color="#9B65AA"/>
<stop offset="0.48" stop-color="#7859A5"/>
<stop offset="0.75" stop-color="#6A4E9D"/>
<stop offset="1" stop-color="#0E0B36"/>
</linearGradient>
<linearGradient id="paint37_linear_81_3066" x1="3.4166" y1="42.9083" x2="199.143" y2="18.7927" gradientUnits="userSpaceOnUse">
<stop stop-color="#A377AA"/>
<stop offset="0.25" stop-color="#9B65AA"/>
<stop offset="0.48" stop-color="#7859A5"/>
<stop offset="0.75" stop-color="#6A4E9D"/>
<stop offset="1" stop-color="#0E0B36"/>
</linearGradient>
<linearGradient id="paint38_linear_81_3066" x1="1.01693" y1="23.4652" x2="196.743" y2="-0.657331" gradientUnits="userSpaceOnUse">
<stop stop-color="#A377AA"/>
<stop offset="0.25" stop-color="#9B65AA"/>
<stop offset="0.48" stop-color="#7859A5"/>
<stop offset="0.75" stop-color="#6A4E9D"/>
<stop offset="1" stop-color="#0E0B36"/>
</linearGradient>
<linearGradient id="paint39_linear_81_3066" x1="0.332549" y1="17.8899" x2="196.059" y2="-6.23248" gradientUnits="userSpaceOnUse">
<stop stop-color="#A377AA"/>
<stop offset="0.25" stop-color="#9B65AA"/>
<stop offset="0.48" stop-color="#7859A5"/>
<stop offset="0.75" stop-color="#6A4E9D"/>
<stop offset="1" stop-color="#0E0B36"/>
</linearGradient>
<linearGradient id="paint40_linear_81_3066" x1="-0.310661" y1="12.7037" x2="195.422" y2="-11.4119" gradientUnits="userSpaceOnUse">
<stop stop-color="#A377AA"/>
<stop offset="0.25" stop-color="#9B65AA"/>
<stop offset="0.48" stop-color="#7859A5"/>
<stop offset="0.75" stop-color="#6A4E9D"/>
<stop offset="1" stop-color="#0E0B36"/>
</linearGradient>
<clipPath id="clip0_81_3066">
<rect width="175" height="75" fill="white" transform="translate(0.166504)"/>
</clipPath>
</defs>
</svg>
