<svg width="97" height="105" viewBox="0 0 97 105" fill="none" xmlns="http://www.w3.org/2000/svg">
<g clip-path="url(#clip0_81_3027)">
<path d="M11.4598 51.5491C13.1797 53.1941 15.4417 54.1475 17.8222 54.2472C23.2 54.4653 28.4719 53.973 33.5381 52.8452C41.0346 51.1753 48.0762 48.1158 54.3327 43.9161C55.2612 43.293 54.7938 41.9657 53.8591 41.8473C53.6971 41.8287 53.5226 41.8474 53.3419 41.9034C44.948 44.6763 35.8126 45.667 26.4528 44.4769C17.7225 43.3677 9.65263 40.4641 2.57362 36.1895C2.21219 35.9714 1.85699 35.7534 1.50179 35.529C0.654304 34.9932 -0.348972 35.9403 0.130856 36.8189C0.492284 37.4794 0.866176 38.1274 1.25876 38.7692C3.77007 42.9627 6.7799 46.8384 10.2135 50.3216C10.6248 50.7391 11.0423 51.1503 11.466 51.5554L11.4598 51.5491Z" fill="url(#paint0_linear_81_3027)"/>
<path d="M74.342 30.0706C74.0803 29.1421 73.7936 28.2137 73.482 27.2977C72.9461 25.6963 72.3479 24.1261 71.6811 22.5808C69.9612 18.5742 67.8114 14.767 65.2938 11.2216C61.2122 5.47027 54.9619 1.83133 48.207 0.971437C45.5461 0.634959 42.8105 0.722194 40.0873 1.28922C33.675 2.62267 27.5619 4.97179 21.9598 8.19325C20.0467 9.29615 18.1959 10.4988 16.4075 11.801C15.5226 12.4491 16.0772 13.8511 17.1615 13.7015C23.9165 12.798 30.9332 13.0161 37.9748 14.5116C45.7143 16.1566 52.8058 19.1973 59.0311 23.3098C61.5923 25.0047 64.0101 26.8865 66.2722 28.9303C66.9389 29.5285 67.587 30.1453 68.2226 30.7747C69.1511 31.6906 70.0422 32.6315 70.9084 33.6036C71.9491 34.7688 72.9399 35.9652 73.8809 37.2051C74.5539 38.0837 75.9497 37.4731 75.7628 36.3889C75.3951 34.2516 74.9153 32.1455 74.3295 30.0706H74.342Z" fill="url(#paint1_linear_81_3027)"/>
<path d="M69.8058 56.4656C73.9124 50.8265 78.4863 45.4366 70.4601 37.8036C69.7622 37.1368 68.9085 36.7069 68.1919 36.6134C67.6933 36.5511 67.2571 36.6508 66.9767 36.9499C59.3119 45.231 49.4163 51.3499 38.3428 54.4094C32.3107 56.0793 28.9145 56.2974 25.3688 56.503C24.5525 56.5529 23.7361 56.5653 22.926 56.5404L18.5203 56.4158C17.1806 56.098 16.8877 57.7679 17.5171 57.9549C37.8879 63.9928 47.4596 70.1553 72.3981 92.5498C73.2082 93.2788 74.4172 92.7243 74.062 91.6899C73.0213 88.6491 71.7501 85.7143 70.2607 82.8978C67.2135 77.1341 63.2689 71.8938 58.5891 67.3825C58.2027 67.0086 58.2588 66.373 58.7137 66.0802C60.9384 64.6408 66.7399 60.6716 69.8058 56.4656Z" fill="url(#paint2_linear_81_3027)"/>
<path d="M19.9844 68.7785C18.9811 68.2364 17.9591 67.6257 16.9185 66.9465C15.8716 66.2674 14.8621 65.5259 13.8962 64.7158C13.6407 64.9214 13.3354 65.2517 12.9926 65.7003C12.6499 66.149 12.3009 66.6599 11.9395 67.2394C11.5843 67.8189 11.2291 68.4171 10.8864 69.034C10.5436 69.6571 10.2383 70.2303 9.96409 70.76C9.68991 71.2896 9.47804 71.7507 9.32225 72.1433C9.16646 72.5358 9.08545 72.7788 9.08545 72.8661C9.57151 73.6699 10.3504 74.4612 11.4223 75.2339C12.4941 76.0065 13.6033 76.6857 14.7499 77.2714C15.8965 77.8572 16.9621 78.3307 17.9467 78.6859C18.9313 79.0411 19.5856 79.2218 19.8972 79.2218C20.0966 79.2218 20.458 78.9227 20.969 78.3245C21.4862 77.7263 22.0221 76.991 22.5767 76.1311C23.1375 75.265 23.6735 74.374 24.1844 73.4518C24.7017 72.5296 25.0693 71.7382 25.2999 71.0653V70.9967C24.5583 70.8098 23.7358 70.5294 22.8322 70.1493C21.9286 69.7692 20.9814 69.3081 19.9782 68.766L19.9844 68.7785Z" fill="url(#paint3_linear_81_3027)"/>
<path d="M16.9061 88.7988L14.1206 96.3634H15.2672L15.8343 94.7059H18.8877L19.4548 96.3634H20.6014L17.8159 88.7988H16.9123H16.9061ZM16.177 93.6902L17.3548 90.2569L18.5325 93.6902H16.1708H16.177Z" fill="url(#paint4_linear_81_3027)"/>
<path d="M24.1098 90.8867C23.792 90.8867 23.4991 90.974 23.2374 91.1547C23.0255 91.298 22.851 91.5036 22.7015 91.7404V90.9615H21.6421V96.3576H22.7015V92.943C22.7015 92.6127 22.7949 92.3573 22.9819 92.1703C23.1688 91.9834 23.4305 91.8899 23.767 91.8899C23.954 91.8899 24.116 91.9211 24.2593 91.9772C24.4027 92.0395 24.5211 92.1205 24.6145 92.2389L25.3062 91.3042C25.1567 91.1671 24.9822 91.0612 24.7828 90.9926C24.5834 90.9241 24.359 90.8867 24.116 90.8867H24.1098Z" fill="url(#paint5_linear_81_3027)"/>
<path d="M29.2632 91.1167C28.9454 90.9609 28.559 90.8799 28.1166 90.8799C27.7053 90.8799 27.3377 90.9484 27.0012 91.0855C26.6647 91.2226 26.3967 91.4158 26.1911 91.6588L26.9638 92.1884C27.1258 92.07 27.3065 91.9766 27.5121 91.9142C27.7178 91.8457 27.9297 91.8145 28.1415 91.8145C28.4905 91.8145 28.7585 91.9142 28.9454 92.1074C29.1323 92.3006 29.2258 92.581 29.2258 92.9299V93.1605H27.7365C27.1258 93.1605 26.6709 93.2913 26.3655 93.5592C26.0664 93.8272 25.9106 94.226 25.9106 94.7618C25.9106 95.3226 26.0727 95.7401 26.4029 96.0205C26.7332 96.2947 27.2317 96.4318 27.8985 96.4318C28.1228 96.4318 28.3285 96.4068 28.5092 96.3632C28.6899 96.3196 28.8457 96.2448 28.9828 96.1514C29.07 96.0891 29.151 96.0143 29.2196 95.9333V96.357H30.2291V92.8863C30.2291 92.4626 30.1481 92.1012 29.9798 91.8021C29.8116 91.503 29.5686 91.2724 29.2507 91.1167H29.2632ZM28.9329 95.441C28.7335 95.5283 28.4282 95.5719 28.0231 95.5719C27.6492 95.5719 27.3751 95.5033 27.1943 95.3725C27.0136 95.2416 26.9202 95.036 26.9202 94.7618C26.9202 94.5064 26.9887 94.3194 27.1258 94.1948C27.2629 94.0702 27.4685 94.0079 27.7489 94.0079H29.232V95.0298C29.232 95.2167 29.1323 95.3476 28.9329 95.4348V95.441Z" fill="url(#paint6_linear_81_3027)"/>
<path d="M35.3079 91.1417C35.0337 90.9672 34.7096 90.8862 34.3295 90.8862C34.0055 90.8862 33.7126 90.9735 33.4509 91.1417C33.239 91.2788 33.0645 91.4782 32.9212 91.7087V88.7988H31.8618V96.3634H32.9212V95.6405C33.0396 95.8711 33.1891 96.0643 33.401 96.2013C33.6503 96.3633 33.9431 96.4444 34.2796 96.4444C34.6722 96.4444 35.0087 96.3571 35.2892 96.1889C35.5696 96.0144 35.7814 95.7714 35.931 95.4411C36.0743 95.1171 36.1491 94.7246 36.1491 94.2635V93.0858C36.1491 92.6185 36.0806 92.2259 35.9372 91.8957C35.7939 91.5654 35.5883 91.3162 35.3141 91.1417H35.3079ZM35.0835 94.2572C35.0835 94.6436 34.99 94.9489 34.7969 95.1608C34.6037 95.3726 34.3357 95.4785 33.9805 95.4785C33.7562 95.4785 33.563 95.4349 33.4072 95.3477C33.2514 95.2605 33.1268 95.1358 33.0458 94.9738C32.9648 94.8118 32.9212 94.6124 32.9212 94.3819V92.9113C32.9212 92.687 32.9648 92.4939 33.0458 92.3318C33.1268 92.1698 33.2514 92.0515 33.4072 91.9642C33.563 91.8832 33.7562 91.8396 33.9805 91.8396C34.3295 91.8396 34.6037 91.9517 34.7969 92.1698C34.99 92.3879 35.0835 92.6932 35.0835 93.092V94.2635V94.2572Z" fill="url(#paint7_linear_81_3027)"/>
<path d="M43.5457 92.4443C43.2404 92.3135 42.854 92.2075 42.3991 92.1141C42.3804 92.1141 42.3617 92.1079 42.343 92.1016C42.3244 92.1016 42.3057 92.0954 42.287 92.0892C42.2745 92.0892 42.262 92.0891 42.2496 92.0829C42.2371 92.0829 42.2247 92.0829 42.2122 92.0767C41.8196 92.0019 41.5143 91.9271 41.2962 91.8524C41.078 91.7838 40.8911 91.6717 40.7478 91.5221C40.6045 91.3726 40.5234 91.167 40.5234 90.9052C40.5234 90.5252 40.6668 90.2323 40.9534 90.0267C41.2401 89.821 41.6389 89.7151 42.1561 89.7151C42.4428 89.7151 42.7294 89.765 43.0161 89.8709C43.3027 89.9768 43.5894 90.1326 43.876 90.3445L44.4805 89.5033C44.2312 89.3288 43.9819 89.1792 43.7265 89.0609C43.471 88.9425 43.2155 88.8552 42.9537 88.7991C42.692 88.7431 42.4241 88.7119 42.1561 88.7119C41.589 88.7119 41.1092 88.7991 40.7042 88.9736C40.2991 89.1481 39.9938 89.3973 39.7881 89.7276C39.5763 90.0578 39.4765 90.4566 39.4765 90.9239C39.4765 91.466 39.5887 91.8773 39.8131 92.1639C40.0374 92.4506 40.3116 92.65 40.6294 92.7621C40.9472 92.8743 41.3585 92.9677 41.8632 93.055L41.9442 93.0737C41.9442 93.0737 41.9629 93.0737 41.9754 93.0737C41.9879 93.0737 42.0003 93.0737 42.0066 93.0737C42.3493 93.136 42.6297 93.2045 42.8478 93.2793C43.0659 93.3541 43.2404 93.4662 43.3775 93.622C43.5146 93.7778 43.5831 93.9834 43.5831 94.2513C43.5831 94.6252 43.4336 94.9118 43.1282 95.1175C42.8229 95.3231 42.3991 95.4228 41.8508 95.4228C41.4457 95.4228 41.0718 95.3605 40.7229 95.2359C40.3739 95.1112 40.0561 94.9243 39.7694 94.675L39.1089 95.4851C39.3581 95.6907 39.6199 95.8652 39.9003 96.0023C40.1807 96.1394 40.4861 96.2453 40.8101 96.3138C41.1341 96.3824 41.4831 96.4198 41.8445 96.4198C42.4303 96.4198 42.9288 96.3325 43.3463 96.1643C43.7638 95.9898 44.0754 95.7406 44.2935 95.4165C44.5116 95.0863 44.6238 94.6937 44.6238 94.2326V94.2202C44.6238 93.7217 44.5179 93.3354 44.3122 93.0487C44.1066 92.7621 43.8511 92.5565 43.5395 92.4256L43.5457 92.4443Z" fill="url(#paint8_linear_81_3027)"/>
<path d="M50.1015 95.4348C50.2449 95.1108 50.3196 94.7182 50.3196 94.2571V93.0795C50.3196 92.6121 50.2511 92.2196 50.1078 91.8893C49.9644 91.5591 49.7588 91.3098 49.4846 91.1354C49.2104 90.9609 48.8864 90.8799 48.5063 90.8799C48.1822 90.8799 47.8893 90.9671 47.6276 91.1354C47.4157 91.2724 47.2413 91.4718 47.0979 91.7024V90.9547H46.0386V98.5503H47.0979V95.6342C47.2163 95.8647 47.3659 96.0579 47.5778 96.195C47.827 96.357 48.1199 96.438 48.4564 96.438C48.849 96.438 49.1855 96.3508 49.4659 96.1825C49.7463 96.0081 49.9582 95.765 50.1078 95.4348H50.1015ZM49.2603 94.2571C49.2603 94.6435 49.1668 94.9488 48.9736 95.1606C48.7804 95.3725 48.5125 95.4784 48.1573 95.4784C47.933 95.4784 47.7398 95.4348 47.584 95.3476C47.4282 95.2603 47.3036 95.1357 47.2226 94.9737C47.1416 94.8117 47.0979 94.6123 47.0979 94.3817V92.9112C47.0979 92.6869 47.1416 92.4937 47.2226 92.3317C47.3036 92.1697 47.4282 92.0513 47.584 91.9641C47.7398 91.8831 47.933 91.8395 48.1573 91.8395C48.5063 91.8395 48.7804 91.9516 48.9736 92.1697C49.1668 92.3878 49.2603 92.6931 49.2603 93.0919V94.2634V94.2571Z" fill="url(#paint9_linear_81_3027)"/>
<path d="M55.8841 96.3638V92.8931C55.8841 92.4694 55.8031 92.108 55.6349 91.8089C55.4666 91.5098 55.2236 91.2793 54.9058 91.1235C54.588 90.9677 54.2016 90.8867 53.7592 90.8867C53.3479 90.8867 52.9802 90.9553 52.6437 91.0923C52.3072 91.2294 52.0393 91.4226 51.8336 91.6656L52.6063 92.1952C52.7684 92.0769 52.9491 91.9834 53.1547 91.9211C53.3604 91.8525 53.5722 91.8214 53.7841 91.8214C54.1331 91.8214 54.401 91.9211 54.588 92.1142C54.7749 92.3074 54.8684 92.5878 54.8684 92.9367V93.1673H53.3791C52.7684 93.1673 52.3135 93.2981 52.0081 93.5661C51.709 93.834 51.5532 94.2328 51.5532 94.7687C51.5532 95.3295 51.7152 95.747 52.0455 96.0274C52.3758 96.3078 52.8743 96.4386 53.5411 96.4386C53.7654 96.4386 53.9711 96.4137 54.1518 96.3701C54.3325 96.3264 54.4883 96.2517 54.6254 96.1582C54.7126 96.0959 54.7936 96.0211 54.8622 95.9401V96.3638H55.8717H55.8841ZM54.5755 95.4479C54.3761 95.5351 54.0708 95.5787 53.6657 95.5787C53.2918 95.5787 53.0176 95.5102 52.8369 95.3793C52.6562 95.2485 52.5627 95.0429 52.5627 94.7687C52.5627 94.5132 52.6313 94.3263 52.7684 94.2017C52.9055 94.077 53.1111 94.0147 53.3915 94.0147H54.8746V95.0366C54.8746 95.2235 54.7749 95.3544 54.5755 95.4416V95.4479Z" fill="url(#paint10_linear_81_3027)"/>
<path d="M58.7384 92.2385C58.9627 92.0079 59.2805 91.8958 59.6918 91.8958C59.9161 91.8958 60.128 91.9456 60.3337 92.0391C60.5393 92.1326 60.72 92.2634 60.8696 92.4379L61.636 91.7525C61.5052 91.5718 61.3369 91.4098 61.1438 91.2851C60.9506 91.1605 60.7262 91.0608 60.477 90.9923C60.2277 90.9237 59.966 90.8926 59.6856 90.8926C59.1933 90.8926 58.7758 90.986 58.4268 91.1667C58.0778 91.3474 57.8099 91.6154 57.6292 91.9581C57.4422 92.307 57.355 92.7245 57.355 93.2105V94.1016C57.355 94.6001 57.4485 95.0238 57.6292 95.3727C57.8099 95.7217 58.0778 95.9896 58.4268 96.1765C58.7758 96.3572 59.1933 96.4507 59.6856 96.4507C59.966 96.4507 60.2277 96.4195 60.477 96.351C60.7262 96.2825 60.9506 96.189 61.1438 96.0644C61.3369 95.9397 61.5052 95.784 61.6423 95.6033L60.8758 94.868C60.7262 95.0487 60.5518 95.192 60.3461 95.2917C60.1405 95.3914 59.9286 95.4413 59.698 95.4413C59.2868 95.4413 58.9689 95.3229 58.7446 95.0923C58.5203 94.8618 58.4081 94.5315 58.4081 94.1016V93.2105C58.4081 92.7931 58.5203 92.4753 58.7446 92.2447L58.7384 92.2385Z" fill="url(#paint11_linear_81_3027)"/>
<path d="M66.0728 91.2232C65.755 90.9989 65.3687 90.8867 64.92 90.8867C64.4402 90.8867 64.0351 90.9864 63.6924 91.1858C63.3497 91.3852 63.0942 91.6718 62.9135 92.0519C62.7327 92.432 62.6455 92.8869 62.6455 93.4228V94.0334C62.6455 94.5444 62.739 94.9868 62.9259 95.3482C63.1129 95.7096 63.3808 95.9837 63.736 96.1707C64.0912 96.3576 64.515 96.4511 65.0135 96.4511C65.35 96.4511 65.6865 96.3825 66.0168 96.2392C66.347 96.0959 66.6524 95.9027 66.9141 95.641L66.2162 94.9432C66.0479 95.0989 65.861 95.2236 65.6491 95.3046C65.4372 95.3856 65.2254 95.4354 65.0073 95.4354C64.5711 95.4354 64.2408 95.317 64.004 95.074C63.7796 94.8435 63.6612 94.5132 63.655 94.0895H67.0512V93.7343C67.0512 93.1361 66.964 92.6252 66.7957 92.2015C66.6275 91.7778 66.3844 91.4475 66.0666 91.2232H66.0728ZM63.6613 93.2358C63.6799 92.8121 63.7859 92.4756 63.9853 92.2389C64.2034 91.9772 64.515 91.8401 64.92 91.8401C65.2503 91.8401 65.512 91.9647 65.7114 92.2077C65.9108 92.4507 66.023 92.7934 66.0542 93.2358H63.6675H63.6613Z" fill="url(#paint12_linear_81_3027)"/>
<path d="M33.7377 101.529L32.1051 98.7061H31.376V102.987H32.1362V100.089L33.4635 102.389H34.0057L35.333 100.033V102.987H36.0932V98.7061H35.3642L33.7377 101.529Z" fill="url(#paint13_linear_81_3027)"/>
<path d="M39.6513 100.021C39.4145 99.9342 39.134 99.8906 38.81 99.8906C38.5109 99.8906 38.2367 99.928 37.9937 100.009C37.7506 100.09 37.5512 100.196 37.4017 100.333L37.9687 100.632C38.0871 100.564 38.218 100.514 38.3738 100.476C38.5234 100.439 38.6791 100.42 38.8349 100.42C39.0904 100.42 39.2836 100.476 39.4269 100.589C39.5702 100.701 39.6326 100.856 39.6326 101.056V101.187H38.542C38.0934 101.187 37.7569 101.261 37.5388 101.411C37.3144 101.561 37.2085 101.791 37.2085 102.09C37.2085 102.408 37.3269 102.645 37.5699 102.801C37.813 102.956 38.1744 103.037 38.6667 103.037C38.8349 103.037 38.9783 103.025 39.1153 103C39.2462 102.975 39.3646 102.931 39.4643 102.882C39.5329 102.844 39.5827 102.794 39.6388 102.744V103H40.3803V101.037C40.3803 100.8 40.318 100.595 40.1996 100.42C40.075 100.252 39.9005 100.121 39.6637 100.034L39.6513 100.021ZM39.4082 102.47C39.2649 102.52 39.0406 102.545 38.7415 102.545C38.4673 102.545 38.2679 102.508 38.1308 102.433C37.9999 102.358 37.9314 102.246 37.9314 102.09C37.9314 101.947 37.9812 101.841 38.0809 101.772C38.1806 101.704 38.3364 101.666 38.5358 101.666H39.6263V102.246C39.6263 102.352 39.5516 102.427 39.4082 102.477V102.47Z" fill="url(#paint14_linear_81_3027)"/>
<path d="M43.3651 99.8842C43.1283 99.8842 42.9165 99.934 42.7233 100.034C42.5675 100.115 42.4429 100.233 42.3307 100.364V99.9215H41.5518V102.981H42.3307V101.043C42.3307 100.856 42.3992 100.713 42.5363 100.607C42.6734 100.501 42.8666 100.451 43.1096 100.451C43.2467 100.451 43.3651 100.47 43.4711 100.501C43.577 100.532 43.6642 100.582 43.7328 100.651L44.2375 100.121C44.1254 100.04 44.0008 99.9839 43.8512 99.9402C43.7016 99.9028 43.5396 99.8779 43.3589 99.8779L43.3651 99.8842Z" fill="url(#paint15_linear_81_3027)"/>
<path d="M48.176 99.9273H47.26L45.6647 101.41V98.7061H44.8857V102.987H45.6647V102.108L46.3626 101.504L47.5279 102.987H48.3754L46.8549 101.08L48.176 99.9273Z" fill="url(#paint16_linear_81_3027)"/>
<path d="M51.4227 100.077C51.1859 99.9523 50.9055 99.8838 50.5752 99.8838C50.2262 99.8838 49.9209 99.9399 49.6716 100.052C49.4224 100.164 49.2292 100.326 49.0983 100.538C48.9675 100.75 48.8989 101.012 48.8989 101.311V101.653C48.8989 101.946 48.9675 102.189 49.1046 102.395C49.2417 102.601 49.4411 102.756 49.6966 102.862C49.9521 102.968 50.2699 103.018 50.6375 103.018C50.8868 103.018 51.1298 102.981 51.3728 102.9C51.6159 102.819 51.8402 102.706 52.0334 102.563L51.5224 102.171C51.3978 102.258 51.2607 102.326 51.1049 102.376C50.9491 102.426 50.7933 102.451 50.6375 102.451C50.3197 102.451 50.0767 102.382 49.9022 102.245C49.734 102.115 49.6529 101.928 49.6467 101.691H52.1393V101.491C52.1393 101.155 52.077 100.862 51.9524 100.625C51.8277 100.382 51.6533 100.202 51.4165 100.071L51.4227 100.077ZM49.6592 101.217C49.6716 100.98 49.7464 100.787 49.8897 100.65C50.0518 100.501 50.2823 100.426 50.5752 100.426C50.8182 100.426 51.0114 100.494 51.1547 100.632C51.2981 100.769 51.3791 100.962 51.404 101.211H49.6592V101.217Z" fill="url(#paint17_linear_81_3027)"/>
<path d="M54.096 99.0365H53.317V99.9275H52.9058V100.47H53.317V102.189C53.317 102.457 53.3918 102.657 53.5414 102.794C53.6909 102.931 53.9277 102.999 54.2455 102.999H54.6942V102.426H54.3203C54.2455 102.426 54.1895 102.408 54.1521 102.364C54.1147 102.32 54.096 102.264 54.096 102.189V100.463H54.6942V99.9213H54.096V99.0303V99.0365Z" fill="url(#paint18_linear_81_3027)"/>
<path d="M56.5451 98.7061H55.7661V99.3042H56.5451V98.7061Z" fill="url(#paint19_linear_81_3027)"/>
<path d="M56.5451 99.9277H55.7661V102.987H56.5451V99.9277Z" fill="url(#paint20_linear_81_3027)"/>
<path d="M59.5611 99.8842C59.3243 99.8842 59.1062 99.934 58.9068 100.034C58.7447 100.115 58.6201 100.233 58.5079 100.37V99.9278H57.729V102.987H58.5079V101.049C58.5079 100.862 58.5765 100.713 58.7136 100.613C58.8507 100.507 59.0501 100.457 59.3056 100.457C59.5611 100.457 59.7729 100.513 59.9163 100.632C60.0596 100.75 60.1344 100.919 60.1344 101.13V102.981H60.9133V101.124C60.9133 100.725 60.7949 100.42 60.5581 100.202C60.3213 99.9839 59.9911 99.8779 59.5611 99.8779V99.8842Z" fill="url(#paint21_linear_81_3027)"/>
<path d="M64.3466 100.326C64.2407 100.201 64.1098 100.095 63.954 100.014C63.7608 99.9209 63.5427 99.8711 63.3122 99.8711C63.0318 99.8711 62.795 99.9209 62.5956 100.014C62.3961 100.114 62.2466 100.251 62.1407 100.438C62.0347 100.625 61.9849 100.849 61.9849 101.111V101.784C61.9849 102.046 62.0409 102.27 62.1469 102.457C62.2528 102.644 62.4086 102.787 62.6142 102.881C62.8199 102.98 63.0691 103.024 63.3558 103.024C63.6175 103.024 63.8356 102.974 64.0163 102.868C64.1659 102.781 64.2718 102.675 64.3528 102.557V102.962C64.3528 103.192 64.2718 103.373 64.1098 103.498C63.9478 103.622 63.7172 103.691 63.4181 103.691C63.2623 103.691 63.1128 103.66 62.9757 103.604C62.8323 103.541 62.714 103.46 62.608 103.354L62.0783 103.722C62.2092 103.878 62.3899 103.996 62.6267 104.083C62.8635 104.171 63.1315 104.214 63.4243 104.214C63.7858 104.214 64.0911 104.164 64.3466 104.058C64.6021 103.952 64.7953 103.803 64.9261 103.604C65.057 103.404 65.1256 103.161 65.1256 102.881V99.9147H64.3466V100.314V100.326ZM64.2531 102.202C64.1908 102.295 64.1036 102.37 63.9852 102.42C63.8668 102.469 63.7297 102.494 63.5614 102.494C63.3059 102.494 63.1065 102.432 62.9632 102.314C62.8199 102.195 62.7513 102.021 62.7513 101.797V101.13C62.7513 100.905 62.8199 100.731 62.9632 100.606C63.1065 100.482 63.3059 100.419 63.5614 100.419C63.7297 100.419 63.8668 100.444 63.9852 100.494C64.1036 100.544 64.1908 100.613 64.2531 100.706C64.3155 100.8 64.3466 100.912 64.3466 101.036V101.859C64.3466 101.99 64.3155 102.102 64.2531 102.195V102.202Z" fill="url(#paint22_linear_81_3027)"/>
<path d="M70.6343 100.769C70.41 100.694 70.1296 100.632 69.7931 100.582C69.7806 100.582 69.7682 100.582 69.7495 100.582H69.7058C69.7058 100.582 69.6872 100.57 69.6747 100.57C69.6685 100.57 69.656 100.57 69.6435 100.57C69.3569 100.526 69.1325 100.483 68.9705 100.445C68.8085 100.408 68.6714 100.339 68.5655 100.258C68.4595 100.177 68.4035 100.059 68.4035 99.9093C68.4035 99.6912 68.5094 99.5292 68.7213 99.4108C68.9331 99.2924 69.226 99.2363 69.6061 99.2363C69.818 99.2363 70.0299 99.2675 70.2355 99.3236C70.4474 99.3859 70.653 99.4731 70.8649 99.5915L71.3074 99.1117C71.1266 99.012 70.9397 98.931 70.7527 98.8625C70.5658 98.7939 70.3789 98.7503 70.1857 98.7129C69.9925 98.6818 69.7993 98.6631 69.5999 98.6631C69.1824 98.6631 68.8272 98.7129 68.5343 98.8126C68.2414 98.9123 68.0171 99.0556 67.8613 99.2426C67.7055 99.4295 67.6307 99.6538 67.6307 99.9218C67.6307 100.227 67.7118 100.458 67.88 100.626C68.0483 100.788 68.2477 100.9 68.4782 100.962C68.7088 101.025 69.0141 101.081 69.3818 101.131H69.4379C69.4379 101.131 69.4566 101.143 69.4628 101.143C69.4691 101.143 69.4815 101.143 69.4877 101.143C69.737 101.18 69.9426 101.218 70.1047 101.261C70.2605 101.305 70.3913 101.367 70.491 101.455C70.5907 101.542 70.6406 101.66 70.6406 101.81C70.6406 102.022 70.5284 102.184 70.3103 102.302C70.086 102.414 69.7744 102.477 69.3756 102.477C69.0765 102.477 68.8023 102.439 68.5468 102.371C68.2913 102.302 68.0607 102.196 67.8489 102.053L67.3628 102.514C67.5435 102.632 67.7367 102.732 67.9423 102.807C68.148 102.888 68.3723 102.944 68.6091 102.981C68.8459 103.019 69.1014 103.037 69.3693 103.037C69.7993 103.037 70.167 102.987 70.4723 102.894C70.7777 102.794 71.0082 102.657 71.1703 102.47C71.3323 102.283 71.4133 102.059 71.4133 101.797C71.4133 101.511 71.3385 101.286 71.189 101.124C71.0394 100.962 70.8462 100.844 70.6219 100.775L70.6343 100.769Z" fill="url(#paint23_linear_81_3027)"/>
<path d="M74.8592 100.077C74.6224 99.9523 74.342 99.8838 74.0117 99.8838C73.6628 99.8838 73.3574 99.9399 73.1082 100.052C72.8589 100.164 72.6657 100.326 72.5349 100.538C72.404 100.75 72.3354 101.012 72.3354 101.311V101.653C72.3354 101.946 72.404 102.189 72.5411 102.395C72.6782 102.601 72.8776 102.756 73.1331 102.862C73.3886 102.968 73.7064 103.018 74.074 103.018C74.3233 103.018 74.5663 102.981 74.8094 102.9C75.0524 102.819 75.2767 102.706 75.4699 102.563L74.9589 102.171C74.8343 102.258 74.6972 102.326 74.5414 102.376C74.3856 102.426 74.2298 102.451 74.074 102.451C73.7562 102.451 73.5132 102.382 73.3387 102.245C73.1705 102.115 73.0895 101.928 73.0832 101.691H75.5758V101.491C75.5758 101.155 75.5135 100.862 75.3889 100.625C75.2643 100.382 75.0898 100.202 74.853 100.071L74.8592 100.077ZM73.0957 101.217C73.1082 100.98 73.1829 100.787 73.3263 100.65C73.4883 100.501 73.7188 100.426 74.0117 100.426C74.2548 100.426 74.4479 100.494 74.5913 100.632C74.7346 100.769 74.8156 100.962 74.8405 101.211H73.0957V101.217Z" fill="url(#paint24_linear_81_3027)"/>
<path d="M78.4613 99.8842C78.2245 99.8842 78.0127 99.934 77.8195 100.034C77.6637 100.115 77.5391 100.233 77.4269 100.364V99.9215H76.6479V102.981H77.4269V101.043C77.4269 100.856 77.4954 100.713 77.6325 100.607C77.7696 100.501 77.9628 100.451 78.2058 100.451C78.3429 100.451 78.4613 100.47 78.5673 100.501C78.6732 100.532 78.7604 100.582 78.829 100.651L79.3337 100.121C79.2216 100.04 79.0969 99.9839 78.9474 99.9402C78.7978 99.9028 78.6358 99.8779 78.4551 99.8779L78.4613 99.8842Z" fill="url(#paint25_linear_81_3027)"/>
<path d="M81.3462 102.109L80.3741 99.9277H79.564L81.0533 102.987H81.6391L83.1284 99.9277H82.3183L81.3462 102.109Z" fill="url(#paint26_linear_81_3027)"/>
<path d="M84.674 99.9277H83.895V102.987H84.674V99.9277Z" fill="url(#paint27_linear_81_3027)"/>
<path d="M84.674 98.7061H83.895V99.3042H84.674V98.7061Z" fill="url(#paint28_linear_81_3027)"/>
<path d="M86.768 100.65C86.9362 100.519 87.1668 100.457 87.4659 100.457C87.6279 100.457 87.7837 100.482 87.9332 100.538C88.0828 100.588 88.2137 100.669 88.3258 100.762L88.8867 100.376C88.787 100.27 88.6686 100.183 88.5252 100.108C88.3819 100.033 88.2137 99.9773 88.033 99.9399C87.8522 99.9025 87.6591 99.8838 87.4534 99.8838C87.092 99.8838 86.7866 99.9336 86.5249 100.04C86.2694 100.145 86.0763 100.295 85.9392 100.488C85.8021 100.688 85.7397 100.918 85.7397 101.199V101.703C85.7397 101.984 85.8083 102.22 85.9392 102.42C86.0763 102.619 86.2694 102.769 86.5249 102.875C86.7804 102.981 87.092 103.03 87.4534 103.03C87.6591 103.03 87.8522 103.012 88.033 102.974C88.2137 102.937 88.3757 102.881 88.5252 102.812C88.6686 102.738 88.7932 102.657 88.8929 102.551L88.3321 102.133C88.2199 102.239 88.0953 102.32 87.9457 102.376C87.7962 102.432 87.6404 102.463 87.4721 102.463C87.1668 102.463 86.9362 102.395 86.7742 102.264C86.6122 102.133 86.5249 101.946 86.5249 101.703V101.199C86.5249 100.962 86.6059 100.781 86.7742 100.65H86.768Z" fill="url(#paint29_linear_81_3027)"/>
<path d="M92.1517 100.077C91.9149 99.9523 91.6345 99.8838 91.3042 99.8838C90.9552 99.8838 90.6499 99.9399 90.4006 100.052C90.1514 100.164 89.9582 100.326 89.8273 100.538C89.6965 100.75 89.6279 101.012 89.6279 101.311V101.653C89.6279 101.946 89.6965 102.189 89.8336 102.395C89.9707 102.601 90.1701 102.756 90.4256 102.862C90.6811 102.968 90.9989 103.018 91.3665 103.018C91.6158 103.018 91.8588 102.981 92.1018 102.9C92.3449 102.819 92.5692 102.706 92.7624 102.563L92.2514 102.171C92.1268 102.258 91.9897 102.326 91.8339 102.376C91.6781 102.426 91.5223 102.451 91.3665 102.451C91.0487 102.451 90.8057 102.382 90.6312 102.245C90.463 102.115 90.3819 101.928 90.3757 101.691H92.8683V101.491C92.8683 101.155 92.806 100.862 92.6814 100.625C92.5567 100.382 92.3823 100.202 92.1455 100.071L92.1517 100.077ZM90.3882 101.217C90.4006 100.98 90.4754 100.787 90.6187 100.65C90.7808 100.501 91.0113 100.426 91.3042 100.426C91.5472 100.426 91.7404 100.494 91.8837 100.632C92.0271 100.769 92.1081 100.962 92.133 101.211H90.3882V101.217Z" fill="url(#paint30_linear_81_3027)"/>
<path d="M96.8008 101.497C96.6699 101.373 96.5079 101.286 96.3085 101.242C96.1091 101.198 95.8785 101.173 95.5981 101.155C95.5919 101.155 95.5856 101.155 95.5732 101.155H95.5482C95.5482 101.155 95.5108 101.155 95.4984 101.155C95.4859 101.155 95.4672 101.155 95.4485 101.155C95.2367 101.142 95.0746 101.136 94.9625 101.117C94.8503 101.105 94.7506 101.074 94.6758 101.036C94.601 100.993 94.5637 100.93 94.5637 100.849C94.5637 100.712 94.6322 100.606 94.7631 100.538C94.8939 100.469 95.0933 100.432 95.3613 100.432C95.542 100.432 95.7289 100.457 95.9221 100.507C96.1153 100.557 96.3085 100.631 96.5079 100.731L96.9753 100.295C96.8195 100.208 96.6512 100.133 96.483 100.077C96.3147 100.021 96.134 99.9771 95.9471 99.946C95.7601 99.9148 95.5607 99.9023 95.3551 99.9023C95.0123 99.9023 94.7319 99.9397 94.5013 100.008C94.2708 100.077 94.1025 100.189 93.9904 100.332C93.8782 100.476 93.8159 100.656 93.8159 100.868C93.8159 101.08 93.8782 101.248 93.9966 101.367C94.115 101.485 94.2645 101.56 94.439 101.603C94.6197 101.647 94.8378 101.672 95.0933 101.691C95.1058 101.691 95.112 101.691 95.1245 101.691C95.137 101.691 95.1432 101.691 95.1556 101.691C95.1743 101.691 95.1993 101.691 95.218 101.691C95.2367 101.691 95.2616 101.691 95.2803 101.691C95.5046 101.703 95.6853 101.722 95.81 101.734C95.9346 101.747 96.0405 101.784 96.1215 101.834C96.2025 101.884 96.2462 101.959 96.2462 102.052C96.2462 102.202 96.1714 102.308 96.0156 102.382C95.8598 102.457 95.6292 102.494 95.3239 102.494C95.1183 102.494 94.9064 102.463 94.7007 102.401C94.4889 102.339 94.277 102.245 94.0651 102.121L93.604 102.557C93.7536 102.663 93.9156 102.75 94.0963 102.825C94.277 102.893 94.4639 102.949 94.6696 102.987C94.8752 103.024 95.0933 103.037 95.3301 103.037C95.704 103.037 96.0094 102.999 96.2586 102.931C96.5079 102.862 96.6886 102.75 96.8132 102.607C96.9379 102.463 96.9939 102.283 96.9939 102.058C96.9939 101.815 96.9254 101.635 96.7945 101.504L96.8008 101.497Z" fill="url(#paint31_linear_81_3027)"/>
</g>
<defs>
<linearGradient id="paint0_linear_81_3027" x1="62.7515" y1="-21.4417" x2="-12.8972" y2="109.441" gradientUnits="userSpaceOnUse">
<stop stop-color="#A377AA"/>
<stop offset="0.25" stop-color="#9B65AA"/>
<stop offset="0.48" stop-color="#7859A5"/>
<stop offset="0.75" stop-color="#6A4E9D"/>
<stop offset="1" stop-color="#0E0B36"/>
</linearGradient>
<linearGradient id="paint1_linear_81_3027" x1="70.0609" y1="-17.2171" x2="-5.58156" y2="113.665" gradientUnits="userSpaceOnUse">
<stop stop-color="#A377AA"/>
<stop offset="0.25" stop-color="#9B65AA"/>
<stop offset="0.48" stop-color="#7859A5"/>
<stop offset="0.75" stop-color="#6A4E9D"/>
<stop offset="1" stop-color="#0E0B36"/>
</linearGradient>
<linearGradient id="paint2_linear_81_3027" x1="91.5913" y1="-4.77338" x2="15.9425" y2="126.109" gradientUnits="userSpaceOnUse">
<stop stop-color="#A377AA"/>
<stop offset="0.25" stop-color="#9B65AA"/>
<stop offset="0.48" stop-color="#7859A5"/>
<stop offset="0.75" stop-color="#6A4E9D"/>
<stop offset="1" stop-color="#0E0B36"/>
</linearGradient>
<linearGradient id="paint3_linear_81_3027" x1="69.0203" y1="-17.8148" x2="-6.62842" y2="113.068" gradientUnits="userSpaceOnUse">
<stop stop-color="#A377AA"/>
<stop offset="0.25" stop-color="#9B65AA"/>
<stop offset="0.48" stop-color="#7859A5"/>
<stop offset="0.75" stop-color="#6A4E9D"/>
<stop offset="1" stop-color="#0E0B36"/>
</linearGradient>
<linearGradient id="paint4_linear_81_3027" x1="79.1778" y1="-11.9452" x2="3.52906" y2="118.937" gradientUnits="userSpaceOnUse">
<stop stop-color="#A377AA"/>
<stop offset="0.25" stop-color="#9B65AA"/>
<stop offset="0.48" stop-color="#7859A5"/>
<stop offset="0.75" stop-color="#6A4E9D"/>
<stop offset="1" stop-color="#0E0B36"/>
</linearGradient>
<linearGradient id="paint5_linear_81_3027" x1="82.2063" y1="-10.1938" x2="6.55764" y2="120.689" gradientUnits="userSpaceOnUse">
<stop stop-color="#A377AA"/>
<stop offset="0.25" stop-color="#9B65AA"/>
<stop offset="0.48" stop-color="#7859A5"/>
<stop offset="0.75" stop-color="#6A4E9D"/>
<stop offset="1" stop-color="#0E0B36"/>
</linearGradient>
<linearGradient id="paint6_linear_81_3027" x1="86.8924" y1="-7.49014" x2="11.2436" y2="123.392" gradientUnits="userSpaceOnUse">
<stop stop-color="#A377AA"/>
<stop offset="0.25" stop-color="#9B65AA"/>
<stop offset="0.48" stop-color="#7859A5"/>
<stop offset="0.75" stop-color="#6A4E9D"/>
<stop offset="1" stop-color="#0E0B36"/>
</linearGradient>
<linearGradient id="paint7_linear_81_3027" x1="90.326" y1="-5.50219" x2="14.6774" y2="125.38" gradientUnits="userSpaceOnUse">
<stop stop-color="#A377AA"/>
<stop offset="0.25" stop-color="#9B65AA"/>
<stop offset="0.48" stop-color="#7859A5"/>
<stop offset="0.75" stop-color="#6A4E9D"/>
<stop offset="1" stop-color="#0E0B36"/>
</linearGradient>
<linearGradient id="paint8_linear_81_3027" x1="96.6322" y1="-1.85673" x2="20.9897" y2="129.026" gradientUnits="userSpaceOnUse">
<stop stop-color="#A377AA"/>
<stop offset="0.25" stop-color="#9B65AA"/>
<stop offset="0.48" stop-color="#7859A5"/>
<stop offset="0.75" stop-color="#6A4E9D"/>
<stop offset="1" stop-color="#0E0B36"/>
</linearGradient>
<linearGradient id="paint9_linear_81_3027" x1="101.418" y1="0.909397" x2="25.7757" y2="131.792" gradientUnits="userSpaceOnUse">
<stop stop-color="#A377AA"/>
<stop offset="0.25" stop-color="#9B65AA"/>
<stop offset="0.48" stop-color="#7859A5"/>
<stop offset="0.75" stop-color="#6A4E9D"/>
<stop offset="1" stop-color="#0E0B36"/>
</linearGradient>
<linearGradient id="paint10_linear_81_3027" x1="106.11" y1="3.62047" x2="30.4615" y2="134.503" gradientUnits="userSpaceOnUse">
<stop stop-color="#A377AA"/>
<stop offset="0.25" stop-color="#9B65AA"/>
<stop offset="0.48" stop-color="#7859A5"/>
<stop offset="0.75" stop-color="#6A4E9D"/>
<stop offset="1" stop-color="#0E0B36"/>
</linearGradient>
<linearGradient id="paint11_linear_81_3027" x1="110.323" y1="6.0565" x2="34.6805" y2="136.939" gradientUnits="userSpaceOnUse">
<stop stop-color="#A377AA"/>
<stop offset="0.25" stop-color="#9B65AA"/>
<stop offset="0.48" stop-color="#7859A5"/>
<stop offset="0.75" stop-color="#6A4E9D"/>
<stop offset="1" stop-color="#0E0B36"/>
</linearGradient>
<linearGradient id="paint12_linear_81_3027" x1="114.317" y1="8.36228" x2="38.6747" y2="139.245" gradientUnits="userSpaceOnUse">
<stop stop-color="#A377AA"/>
<stop offset="0.25" stop-color="#9B65AA"/>
<stop offset="0.48" stop-color="#7859A5"/>
<stop offset="0.75" stop-color="#6A4E9D"/>
<stop offset="1" stop-color="#0E0B36"/>
</linearGradient>
<linearGradient id="paint13_linear_81_3027" x1="93.9842" y1="-3.39003" x2="18.3417" y2="127.492" gradientUnits="userSpaceOnUse">
<stop stop-color="#A377AA"/>
<stop offset="0.25" stop-color="#9B65AA"/>
<stop offset="0.48" stop-color="#7859A5"/>
<stop offset="0.75" stop-color="#6A4E9D"/>
<stop offset="1" stop-color="#0E0B36"/>
</linearGradient>
<linearGradient id="paint14_linear_81_3027" x1="98.1965" y1="-0.952855" x2="22.5481" y2="129.929" gradientUnits="userSpaceOnUse">
<stop stop-color="#A377AA"/>
<stop offset="0.25" stop-color="#9B65AA"/>
<stop offset="0.48" stop-color="#7859A5"/>
<stop offset="0.75" stop-color="#6A4E9D"/>
<stop offset="1" stop-color="#0E0B36"/>
</linearGradient>
<linearGradient id="paint15_linear_81_3027" x1="100.496" y1="0.373982" x2="24.8533" y2="131.256" gradientUnits="userSpaceOnUse">
<stop stop-color="#A377AA"/>
<stop offset="0.25" stop-color="#9B65AA"/>
<stop offset="0.48" stop-color="#7859A5"/>
<stop offset="0.75" stop-color="#6A4E9D"/>
<stop offset="1" stop-color="#0E0B36"/>
</linearGradient>
<linearGradient id="paint16_linear_81_3027" x1="103.655" y1="2.19924" x2="28.0066" y2="133.081" gradientUnits="userSpaceOnUse">
<stop stop-color="#A377AA"/>
<stop offset="0.25" stop-color="#9B65AA"/>
<stop offset="0.48" stop-color="#7859A5"/>
<stop offset="0.75" stop-color="#6A4E9D"/>
<stop offset="1" stop-color="#0E0B36"/>
</linearGradient>
<linearGradient id="paint17_linear_81_3027" x1="106.914" y1="4.08726" x2="31.272" y2="134.969" gradientUnits="userSpaceOnUse">
<stop stop-color="#A377AA"/>
<stop offset="0.25" stop-color="#9B65AA"/>
<stop offset="0.48" stop-color="#7859A5"/>
<stop offset="0.75" stop-color="#6A4E9D"/>
<stop offset="1" stop-color="#0E0B36"/>
</linearGradient>
<linearGradient id="paint18_linear_81_3027" x1="109.257" y1="5.43959" x2="33.6087" y2="136.322" gradientUnits="userSpaceOnUse">
<stop stop-color="#A377AA"/>
<stop offset="0.25" stop-color="#9B65AA"/>
<stop offset="0.48" stop-color="#7859A5"/>
<stop offset="0.75" stop-color="#6A4E9D"/>
<stop offset="1" stop-color="#0E0B36"/>
</linearGradient>
<linearGradient id="paint19_linear_81_3027" x1="109.993" y1="5.86238" x2="34.3434" y2="136.745" gradientUnits="userSpaceOnUse">
<stop stop-color="#A377AA"/>
<stop offset="0.25" stop-color="#9B65AA"/>
<stop offset="0.48" stop-color="#7859A5"/>
<stop offset="0.75" stop-color="#6A4E9D"/>
<stop offset="1" stop-color="#0E0B36"/>
</linearGradient>
<linearGradient id="paint20_linear_81_3027" x1="111.058" y1="6.48053" x2="35.41" y2="137.363" gradientUnits="userSpaceOnUse">
<stop stop-color="#A377AA"/>
<stop offset="0.25" stop-color="#9B65AA"/>
<stop offset="0.48" stop-color="#7859A5"/>
<stop offset="0.75" stop-color="#6A4E9D"/>
<stop offset="1" stop-color="#0E0B36"/>
</linearGradient>
<linearGradient id="paint21_linear_81_3027" x1="113.426" y1="7.85136" x2="37.7842" y2="138.734" gradientUnits="userSpaceOnUse">
<stop stop-color="#A377AA"/>
<stop offset="0.25" stop-color="#9B65AA"/>
<stop offset="0.48" stop-color="#7859A5"/>
<stop offset="0.75" stop-color="#6A4E9D"/>
<stop offset="1" stop-color="#0E0B36"/>
</linearGradient>
<linearGradient id="paint22_linear_81_3027" x1="116.835" y1="9.81959" x2="41.1861" y2="140.702" gradientUnits="userSpaceOnUse">
<stop stop-color="#A377AA"/>
<stop offset="0.25" stop-color="#9B65AA"/>
<stop offset="0.48" stop-color="#7859A5"/>
<stop offset="0.75" stop-color="#6A4E9D"/>
<stop offset="1" stop-color="#0E0B36"/>
</linearGradient>
<linearGradient id="paint23_linear_81_3027" x1="120.817" y1="12.1198" x2="45.1745" y2="143.002" gradientUnits="userSpaceOnUse">
<stop stop-color="#A377AA"/>
<stop offset="0.25" stop-color="#9B65AA"/>
<stop offset="0.48" stop-color="#7859A5"/>
<stop offset="0.75" stop-color="#6A4E9D"/>
<stop offset="1" stop-color="#0E0B36"/>
</linearGradient>
<linearGradient id="paint24_linear_81_3027" x1="124.481" y1="14.2377" x2="48.8384" y2="145.12" gradientUnits="userSpaceOnUse">
<stop stop-color="#A377AA"/>
<stop offset="0.25" stop-color="#9B65AA"/>
<stop offset="0.48" stop-color="#7859A5"/>
<stop offset="0.75" stop-color="#6A4E9D"/>
<stop offset="1" stop-color="#0E0B36"/>
</linearGradient>
<linearGradient id="paint25_linear_81_3027" x1="126.806" y1="15.584" x2="51.1569" y2="146.466" gradientUnits="userSpaceOnUse">
<stop stop-color="#A377AA"/>
<stop offset="0.25" stop-color="#9B65AA"/>
<stop offset="0.48" stop-color="#7859A5"/>
<stop offset="0.75" stop-color="#6A4E9D"/>
<stop offset="1" stop-color="#0E0B36"/>
</linearGradient>
<linearGradient id="paint26_linear_81_3027" x1="129.385" y1="17.0733" x2="53.7365" y2="147.955" gradientUnits="userSpaceOnUse">
<stop stop-color="#A377AA"/>
<stop offset="0.25" stop-color="#9B65AA"/>
<stop offset="0.48" stop-color="#7859A5"/>
<stop offset="0.75" stop-color="#6A4E9D"/>
<stop offset="1" stop-color="#0E0B36"/>
</linearGradient>
<linearGradient id="paint27_linear_81_3027" x1="132.14" y1="18.6622" x2="56.4973" y2="149.551" gradientUnits="userSpaceOnUse">
<stop stop-color="#A377AA"/>
<stop offset="0.25" stop-color="#9B65AA"/>
<stop offset="0.48" stop-color="#7859A5"/>
<stop offset="0.75" stop-color="#6A4E9D"/>
<stop offset="1" stop-color="#0E0B36"/>
</linearGradient>
<linearGradient id="paint28_linear_81_3027" x1="131.08" y1="18.0504" x2="55.4306" y2="148.933" gradientUnits="userSpaceOnUse">
<stop stop-color="#A377AA"/>
<stop offset="0.25" stop-color="#9B65AA"/>
<stop offset="0.48" stop-color="#7859A5"/>
<stop offset="0.75" stop-color="#6A4E9D"/>
<stop offset="1" stop-color="#0E0B36"/>
</linearGradient>
<linearGradient id="paint29_linear_81_3027" x1="134.514" y1="20.0387" x2="58.8713" y2="150.921" gradientUnits="userSpaceOnUse">
<stop stop-color="#A377AA"/>
<stop offset="0.25" stop-color="#9B65AA"/>
<stop offset="0.48" stop-color="#7859A5"/>
<stop offset="0.75" stop-color="#6A4E9D"/>
<stop offset="1" stop-color="#0E0B36"/>
</linearGradient>
<linearGradient id="paint30_linear_81_3027" x1="137.442" y1="21.7274" x2="61.7999" y2="152.61" gradientUnits="userSpaceOnUse">
<stop stop-color="#A377AA"/>
<stop offset="0.25" stop-color="#9B65AA"/>
<stop offset="0.48" stop-color="#7859A5"/>
<stop offset="0.75" stop-color="#6A4E9D"/>
<stop offset="1" stop-color="#0E0B36"/>
</linearGradient>
<linearGradient id="paint31_linear_81_3027" x1="140.484" y1="23.4844" x2="64.8349" y2="154.367" gradientUnits="userSpaceOnUse">
<stop stop-color="#A377AA"/>
<stop offset="0.25" stop-color="#9B65AA"/>
<stop offset="0.48" stop-color="#7859A5"/>
<stop offset="0.75" stop-color="#6A4E9D"/>
<stop offset="1" stop-color="#0E0B36"/>
</linearGradient>
<clipPath id="clip0_81_3027">
<rect width="97" height="103.455" fill="white" transform="translate(0 0.772461)"/>
</clipPath>
</defs>
</svg>
